<svg id="icon" xmlns="http://www.w3.org/2000/svg" viewBox="0 0 512 512"><path d="M116.334,419.416A10.185,10.185,0,0,0,106.148,429.6a13.617,13.617,0,0,1-13.6,13.6c-18.007-.645-18-26.566,0-27.2a10.185,10.185,0,0,0,10.185-10.186V375.752c-.457-13.467-19.9-13.5-20.371,0v21.439c-36.5,11.967-28.7,65.743,10.186,66.384A34.012,34.012,0,0,0,126.519,429.6,10.185,10.185,0,0,0,116.334,419.416Z" style="fill:#ffb14a"/><rect x="81.003" y="233.138" width="23.086" height="90.645" style="fill:#a3bed8"/><path d="M119.618,336.391A13.656,13.656,0,0,0,106,323.782H79.09a13.656,13.656,0,0,0-13.616,12.609L62,381.572h61.1Z" style="fill:#ff7b69"/><rect x="81.003" y="233.138" width="23.087" height="41.659" style="fill:#7998b2"/><rect x="179.326" y="178.259" width="26.191" height="28.688" style="fill:#d85656"/><rect x="119.39" y="178.259" width="26.191" height="28.688" style="fill:#d85656"/><rect x="370.953" y="-7.562" width="23.086" height="214.159" transform="translate(69.527 340.882) rotate(-52.224)" style="fill:#a3bed8"/><rect x="78.172" y="90.292" width="239.662" height="23.086" transform="translate(-23.748 121.889) rotate(-32.385)" style="fill:#a3bed8"/><path d="M407.669,206.947H64.853l18.63-28.688H407.669V152.068H76.372a13.093,13.093,0,0,0-10.982,5.963L29.751,212.91a13.1,13.1,0,0,0,10.982,20.228H407.669Z" style="fill:#ff7b69"/><path d="M484.364,256H407.669V152.068h57.176a19.519,19.519,0,0,1,19.519,19.519Z" style="fill:#ffb14a"/><rect x="255.519" y="268.831" width="26.191" height="193.408" style="fill:#ff7b69"/><rect x="311.051" y="268.831" width="26.191" height="193.408" style="fill:#ff7b69"/><rect x="281.71" y="319.449" width="29.341" height="26.191" style="fill:#d85656"/><rect x="281.71" y="385.43" width="29.341" height="26.191" style="fill:#d85656"/><path d="M239.627,462.239H353.135A14.358,14.358,0,0,1,367.493,476.6V488.43H225.268V476.6A14.358,14.358,0,0,1,239.627,462.239Z" style="fill:#d85656"/><path d="M287.65,152.068V36.666a13.1,13.1,0,1,1,26.191,0v115.4Z" style="fill:#ff7b69"/><path d="M348.833,152.068V268.831H243.928V190.452a38.385,38.385,0,0,1,38.385-38.384Z" style="fill:#ffb14a"/><path d="M307.855,179.042v42.723H269.47V199.059a20.017,20.017,0,0,1,20.017-20.017Z" style="fill:#53737f"/><path d="M490.184,171.588a25.378,25.378,0,0,0-17.617-24.127c-.816-.875-154.711-120.028-155.782-120.775-6.937-11.574-24.411-11.876-31.745-.549-.171-.112-158.166,100.334-158.421,100.411a5.82,5.82,0,1,0,6.235,9.83L281.83,41.891V55.445l-143.167,90.8H76.372a18.844,18.844,0,0,0-15.863,8.613L24.87,209.74a18.915,18.915,0,0,0,15.863,29.218h34.45v79.413A19.585,19.585,0,0,0,59.67,335.946L56.2,381.125a5.855,5.855,0,0,0,5.8,6.266H76.54v5.773c-39.023,17.425-26.9,75.82,16.006,76.23,35.769,1.457,56.021-52.74,23.788-55.8A16.024,16.024,0,0,0,100.328,429.6a7.792,7.792,0,0,1-7.782,7.783c-10.281-.328-10.283-15.237,0-15.564a16.024,16.024,0,0,0,16-16.006V387.392h14.542a5.857,5.857,0,0,0,5.8-6.267l-3.476-45.179a19.583,19.583,0,0,0-15.511-17.575V254.714a5.821,5.821,0,1,0-11.641,0v63.248H86.823v-79H238.109v29.873a5.82,5.82,0,0,0,5.82,5.82h5.77V456.419H239.626A20.2,20.2,0,0,0,219.447,476.6V488.43a5.821,5.821,0,0,0,5.821,5.821H367.493a5.821,5.821,0,0,0,5.82-5.821V476.6a20.2,20.2,0,0,0-20.179-20.179H343.062V292.346a5.82,5.82,0,0,0-11.64,0V456.419H316.871V274.651h31.962a5.82,5.82,0,0,0,5.82-5.82V238.958h47.2V256a5.82,5.82,0,0,0,5.82,5.82h76.695a5.82,5.82,0,0,0,5.82-5.82ZM293.471,36.665c.3-9.606,14.243-9.619,14.55,0V146.248h-14.55ZM281.83,69.229V146.26c-.6.006-1.209.016-1.807.047-.3-.173-119.2,0-119.625-.059ZM96.911,405.814a4.37,4.37,0,0,1-4.365,4.365c-25.705.91-25.7,37.937,0,38.845A19.445,19.445,0,0,0,111.969,429.6a4.365,4.365,0,1,1,8.73,0,28.185,28.185,0,0,1-28.153,28.154c-32.031-.465-38.9-45.024-8.436-55.013a5.821,5.821,0,0,0,4.07-5.552v-9.8h8.731Zm7.178-76.211c4.845-.508,9.255,2.136,9.726,7.235l2.994,38.913H68.283l2.994-38.913a7.872,7.872,0,0,1,7.814-7.235h25ZM241.961,172.439H83.483a5.819,5.819,0,0,0-4.881,2.65l-18.63,28.688a5.819,5.819,0,0,0,4.881,8.99H219.946c7.625-.179,7.72-11.435,0-11.641h-8.608V184.079h27.236c-.9,3.523-.305,38.81-.465,43.239H40.733a7.276,7.276,0,0,1-6.1-11.238l35.64-54.88a7.245,7.245,0,0,1,6.1-3.312c39.432-.051,135.652.037,176.084,0A44.418,44.418,0,0,0,241.961,172.439ZM199.7,184.079v17.047h-14.55V184.079Zm-26.191,0v17.047H151.4V184.079Zm-33.745,0v17.047h-14.55V184.079Zm-26.191,0v17.047h-38l11.071-17.047Zm223.672,283.98h15.892a8.549,8.549,0,0,1,8.539,8.539v6.012H231.088V476.6a8.549,8.549,0,0,1,8.538-8.539h97.616Zm-75.9-11.64V274.651h14.551V456.419Zm43.891-131.15v14.55h-17.7v-14.55Zm-17.7-11.641V274.651h17.7v38.977Zm17.7,37.832v28.149h-17.7V351.46Zm0,39.789V405.8h-17.7V391.249Zm0,26.192v38.978h-17.7V417.441Zm37.781-154.43H249.749V190.452a32.6,32.6,0,0,1,32.563-32.564c16.292-.009,44.336.007,60.7,0Zm58.837-35.693h-47.2V212.767h47.2Zm0-26.192h-47.2V184.079h47.2Zm0-28.687h-47.2V157.888h47.2ZM350.5,146.248a4.2,4.2,0,0,1-1.662,0H319.662V72.786l82.631,64.042a5.82,5.82,0,1,0,7.131-9.2L319.662,58.059V43.578l132.473,102.67ZM478.544,250.179H413.489V157.888h51.355a13.716,13.716,0,0,1,13.7,13.7Z" style="fill:#333"/><path d="M307.855,173.222H289.488a25.867,25.867,0,0,0-25.838,25.837v22.706a5.821,5.821,0,0,0,5.821,5.82h38.384a5.82,5.82,0,0,0,5.82-5.82V179.042A5.82,5.82,0,0,0,307.855,173.222Zm-5.82,42.723H275.291V199.059a14.213,14.213,0,0,1,14.2-14.2h12.547Z" style="fill:#333"/><path d="M307.855,237.253H296.381a5.82,5.82,0,0,0,0,11.64h11.474C315.528,248.7,315.533,237.447,307.855,237.253Z" style="fill:#333"/></svg>