<?xml version="1.0" encoding="utf-8"?>
<!-- Generator: Adobe Illustrator 18.0.0, SVG Export Plug-In . SVG Version: 6.00 Build 0)  -->
<!DOCTYPE svg PUBLIC "-//W3C//DTD SVG 1.1//EN" "http://www.w3.org/Graphics/SVG/1.1/DTD/svg11.dtd">
<svg version="1.1" id="Icon_Set" xmlns="http://www.w3.org/2000/svg" xmlns:xlink="http://www.w3.org/1999/xlink" x="0px" y="0px"
	 viewBox="0 0 512 512" style="enable-background:new 0 0 512 512;" xml:space="preserve">
<style type="text/css">
	.st0{fill:#4C4372;}
	.st1{fill:#F0C48A;}
	.st2{fill:#FD919E;}
	.st3{fill:#E8677D;}
	.st4{fill:#D3E6F8;}
	.st5{fill:#A4CFF2;}
	.st6{fill:#7BABF1;}
	.st7{fill:#FFFFFF;}
</style>
<g>
	<g>
		<g>
			<g>
				<circle class="st1" cx="256" cy="256" r="207"/>
			</g>
		</g>
	</g>
	<g>
		<g>
			<g>
				<path class="st5" d="M431.732,506.138H80.268V395.06c0-21.105,17.109-38.215,38.215-38.215h275.035
					c21.105,0,38.215,17.109,38.215,38.215V506.138z"/>
			</g>
		</g>
		<g>
			<g>
				<g>
					<rect x="152.913" y="485.26" class="st4" width="42.772" height="20.878"/>
				</g>
			</g>
			<g>
				<g>
					<rect x="316.314" y="485.26" class="st4" width="42.771" height="20.878"/>
				</g>
			</g>
			<g>
				<g>
					<rect x="344.662" y="485.26" class="st5" width="14.424" height="20.878"/>
				</g>
			</g>
			<g>
				<g>
					<rect x="181.261" y="485.26" class="st5" width="14.425" height="20.878"/>
				</g>
			</g>
		</g>
		<g>
			<g>
				<polygon class="st7" points="234.923,506.138 277.076,506.138 319.849,422.56 319.849,366.938 199.991,366.938 199.991,432.595 
									"/>
			</g>
		</g>
		<g>
			<g>
				<polygon class="st4" points="275.152,380.681 275.152,431.491 256,506.138 277.076,506.138 300.558,431.491 300.558,366.938 
					275.152,366.938 				"/>
			</g>
		</g>
		<g>
			<g>
				<path class="st6" d="M406.328,359.053v147.085h25.404V395.06C431.732,378.448,421.131,364.319,406.328,359.053z"/>
			</g>
		</g>
		<g>
			<g>
				<path class="st0" d="M431.732,512H80.268c-3.238,0-5.863-2.625-5.863-5.862V395.06c0-24.305,19.773-44.078,44.078-44.078
					h275.035c24.304,0,44.078,19.773,44.078,44.078v111.078C437.596,509.375,434.971,512,431.732,512z M86.13,500.274h339.74V395.06
					c0-17.839-14.514-32.353-32.352-32.353H118.482c-17.84,0-32.353,14.514-32.353,32.353V500.274z"/>
			</g>
		</g>
		<g>
			<g>
				<path class="st4" d="M300.558,366.118v-78.564h-89.115v73.264v5.3c0,24.608,19.948,44.558,44.558,44.558l0,0
					C280.608,410.676,300.558,390.727,300.558,366.118z"/>
			</g>
		</g>
		<g>
			<g>
				<path class="st5" d="M275.152,406.355c15.021-7.162,25.403-22.483,25.404-40.233v-78.568h-25.404V406.355z"/>
			</g>
		</g>
		<g>
			<g>
				<path class="st0" d="M256,416.538c-27.802,0-50.42-22.618-50.42-50.421v-78.563c0-3.238,2.625-5.863,5.862-5.863h89.114
					c3.238,0,5.863,2.625,5.863,5.863v78.563C306.42,393.92,283.801,416.538,256,416.538z M217.305,293.417v72.7
					c0,21.337,17.359,38.696,38.695,38.696s38.694-17.359,38.694-38.696v-72.7H217.305z"/>
			</g>
		</g>
		<g>
			<g>
				<path class="st2" d="M365.648,181.316H146.352c-10.094,0-18.277-8.183-18.277-18.276l0,0c0-10.094,8.184-18.276,18.277-18.276
					h219.297c10.094,0,18.276,8.183,18.276,18.276l0,0C383.925,173.134,375.742,181.316,365.648,181.316z"/>
			</g>
		</g>
		<g>
			<g>
				<path class="st3" d="M383.869,164.126H128.13c0.564,9.586,8.494,17.19,18.222,17.19h219.297
					C375.375,181.316,383.305,173.712,383.869,164.126z"/>
			</g>
		</g>
		<g>
			<g>
				<path class="st2" d="M256,5.862L256,5.862c-51.248,0-92.793,41.545-92.793,92.793v46.108h185.586V98.655
					C348.793,47.407,307.248,5.862,256,5.862z"/>
			</g>
		</g>
		<g>
			<g>
				<path class="st3" d="M348.793,98.655c0-51.248-41.545-92.793-92.793-92.793l0,0c-2.129,0-4.24,0.078-6.333,0.22
					c41.767,9.048,73.058,46.208,73.058,90.683v47.999H163.207l0,0h185.586V98.655z"/>
			</g>
		</g>
		<g>
			<g>
				<path class="st2" d="M256,5.862L256,5.862c-7.25,0-14.306,0.833-21.077,2.406v136.495h42.153V8.269
					C270.305,6.695,263.25,5.862,256,5.862z"/>
			</g>
		</g>
		<g>
			<g>
				<path class="st4" d="M256,331.694L256,331.694c-45.329,0-82.075-36.746-82.075-82.074v-68.304h164.149v68.304
					C338.074,294.948,301.328,331.694,256,331.694z"/>
			</g>
		</g>
		<g>
			<g>
				<path class="st5" d="M311.658,249.114c0,41.364-30.604,75.564-70.4,81.234c4.785,0.868,9.706,1.346,14.742,1.346l0,0
					c45.328,0,82.074-36.746,82.074-82.074v-68.304h-26.416V249.114z"/>
			</g>
		</g>
		<g>
			<g>
				<path class="st0" d="M256,337.558c-48.49,0-87.939-39.449-87.939-87.938v-68.304c0-3.237,2.625-5.862,5.862-5.862h164.151
					c3.237,0,5.862,2.625,5.862,5.862v68.304C343.938,298.108,304.489,337.558,256,337.558z M179.787,187.179v62.44
					c0,42.024,34.189,76.213,76.213,76.213c42.023,0,76.213-34.188,76.213-76.213v-62.44H179.787z"/>
			</g>
		</g>
		<g>
			<g>
				<path class="st0" d="M348.793,150.626H163.207c-3.238,0-5.863-2.625-5.863-5.862V98.655C157.344,44.257,201.601,0,256,0
					c54.398,0,98.655,44.257,98.655,98.655v46.108C354.655,148.001,352.03,150.626,348.793,150.626z M169.069,138.9h173.86V98.655
					c0-47.933-38.996-86.93-86.93-86.93s-86.931,38.997-86.931,86.93V138.9z"/>
			</g>
		</g>
		<g>
			<g>
				<path class="st0" d="M365.648,187.179H146.351c-13.31,0-24.138-10.828-24.138-24.139c0-13.31,10.828-24.14,24.138-24.14h219.298
					c13.311,0,24.139,10.829,24.139,24.14C389.787,176.351,378.959,187.179,365.648,187.179z M146.351,150.626
					c-6.845,0-12.413,5.568-12.413,12.414c0,6.845,5.568,12.413,12.413,12.413h219.298c6.845,0,12.413-5.568,12.413-12.413
					c0-6.846-5.568-12.414-12.413-12.414H146.351z"/>
			</g>
		</g>
		<g>
			<g>
				<path class="st0" d="M234.922,150.626c-3.237,0-5.862-2.625-5.862-5.862V10.331c0-3.237,2.625-5.862,5.862-5.862
					c3.238,0,5.863,2.625,5.863,5.862v134.433C240.785,148.001,238.16,150.626,234.922,150.626z"/>
			</g>
		</g>
		<g>
			<g>
				<path class="st0" d="M277.077,150.626c-3.237,0-5.862-2.625-5.862-5.862V10.331c0-3.237,2.625-5.862,5.862-5.862
					c3.237,0,5.862,2.625,5.862,5.862v134.433C282.94,148.001,280.315,150.626,277.077,150.626z"/>
			</g>
		</g>
		<g>
			<g>
				<g>
					<path class="st0" d="M136.029,512c-3.237,0-5.862-2.625-5.862-5.862V422.56c0-3.238,2.625-5.863,5.862-5.863
						c3.238,0,5.863,2.625,5.863,5.863v83.578C141.893,509.375,139.268,512,136.029,512z"/>
				</g>
			</g>
			<g>
				<g>
					<path class="st0" d="M375.971,512c-3.238,0-5.863-2.625-5.863-5.862V422.56c0-3.238,2.625-5.863,5.863-5.863
						c3.237,0,5.862,2.625,5.862,5.863v83.578C381.833,509.375,379.208,512,375.971,512z"/>
				</g>
			</g>
		</g>
		<g>
			<g>
				<polygon class="st6" points="211.442,331.694 149.379,356.845 184.994,389.432 149.379,410.676 234.923,506.138 
					211.442,431.491 				"/>
			</g>
		</g>
		<g>
			<g>
				<path class="st0" d="M234.926,512c-1.625,0-3.226-0.674-4.37-1.95l-85.544-95.462c-1.169-1.305-1.692-3.063-1.429-4.794
					c0.263-1.732,1.288-3.256,2.793-4.153l28.845-17.205l-29.799-27.266c-1.485-1.358-2.169-3.383-1.814-5.363
					c0.356-1.98,1.703-3.64,3.569-4.396l62.063-25.149c1.806-0.734,3.859-0.52,5.478,0.571c1.617,1.09,2.586,2.911,2.586,4.861
					v98.896l23.211,73.788c0.827,2.634-0.294,5.487-2.691,6.854C236.915,511.749,235.916,512,234.926,512z M158.495,412.064
					l62.7,69.97L205.85,433.25c-0.179-0.569-0.27-1.163-0.27-1.76v-91.094l-45.391,18.393l28.763,26.316
					c1.368,1.251,2.063,3.076,1.875,4.92c-0.188,1.845-1.237,3.491-2.829,4.441L158.495,412.064z"/>
			</g>
		</g>
		<g>
			<g>
				<polygon class="st6" points="300.558,331.694 362.621,356.845 327.005,389.432 362.621,410.676 277.076,506.138 
					300.558,431.491 				"/>
			</g>
		</g>
		<g>
			<g>
				<path class="st0" d="M277.074,512c-0.99,0-1.989-0.251-2.898-0.769c-2.398-1.366-3.52-4.22-2.691-6.854l23.21-73.788v-98.896
					c0-1.95,0.97-3.771,2.587-4.861c1.617-1.09,3.673-1.305,5.477-0.571l62.064,25.149c1.865,0.756,3.213,2.415,3.568,4.396
					c0.357,1.98-0.328,4.005-1.813,5.363l-29.8,27.266l28.846,17.205c1.505,0.897,2.529,2.421,2.793,4.153
					c0.263,1.73-0.261,3.489-1.43,4.794l-85.544,95.462C280.299,511.326,278.698,512,277.074,512z M306.42,340.397v91.094
					c0,0.597-0.091,1.19-0.27,1.76l-15.345,48.783l62.7-69.97l-29.503-17.597c-1.593-0.95-2.642-2.597-2.83-4.441
					c-0.188-1.844,0.508-3.669,1.876-4.92l28.762-26.316L306.42,340.397z M300.557,431.49h0.01H300.557z"/>
			</g>
		</g>
		<g>
			<g>
				<g>
					<path class="st0" d="M195.685,512h-42.771c-3.237,0-5.862-2.625-5.862-5.862V485.26c0-3.238,2.625-5.863,5.862-5.863h42.771
						c3.237,0,5.863,2.625,5.863,5.863v20.878C201.548,509.375,198.922,512,195.685,512z M158.775,500.274h31.047v-9.152h-31.047
						V500.274z"/>
				</g>
			</g>
			<g>
				<g>
					<path class="st0" d="M359.086,512h-42.771c-3.237,0-5.862-2.625-5.862-5.862V485.26c0-3.238,2.625-5.863,5.862-5.863h42.771
						c3.238,0,5.863,2.625,5.863,5.863v20.878C364.949,509.375,362.324,512,359.086,512z M322.178,500.274h31.047v-9.152h-31.047
						V500.274z"/>
				</g>
			</g>
		</g>
		<g>
			<g>
				<path class="st0" d="M164.872,491.122c-3.237,0-5.863-2.625-5.863-5.862v-29.039c0-3.238,2.626-5.863,5.863-5.863
					s5.862,2.625,5.862,5.863v29.039C170.734,488.497,168.109,491.122,164.872,491.122z"/>
			</g>
		</g>
		<g>
			<g>
				<path class="st0" d="M181.262,491.122c-3.238,0-5.863-2.625-5.863-5.862v-14.52c0-3.237,2.625-5.862,5.863-5.862
					c3.237,0,5.862,2.625,5.862,5.862v14.52C187.124,488.497,184.499,491.122,181.262,491.122z"/>
			</g>
		</g>
	</g>
</g>
</svg>
