<svg xmlns="http://www.w3.org/2000/svg" width="128" height="128" viewBox="0 0 128 128">
  <title>PROTRACTOR</title>
  <g>
    <g>
      <path d="M116.12,61.81a51.436,51.436,0,0,0-.45-6.83c-.13-1.08-.31-2.15-.52-3.21a51.62,51.62,0,0,0-5-14.21c-.47-.9-.97-1.79-1.5-2.66a52.392,52.392,0,0,0-9.76-11.82c-.71-.64-1.44-1.26-2.18-1.85a52.152,52.152,0,0,0-13.43-7.86c-.82-.33-1.66-.64-2.5-.92A51.579,51.579,0,0,0,65.75,9.73c-.58-.03-1.16-.04-1.75-.04s-1.17.01-1.75.04a51.62,51.62,0,0,0-14.63,2.59c-1.11.36-2.21.77-3.28,1.2a51.925,51.925,0,0,0-12.8,7.51c-.92.72-1.81,1.48-2.67,2.26a53.189,53.189,0,0,0-9.4,11.41c-.61.99-1.18,2.01-1.72,3.05a51.508,51.508,0,0,0-4.88,13.89c-.22,1.14-.41,2.29-.56,3.45a53.17,53.17,0,0,0-.43,6.72H1.75V88.84h124.5V61.81Zm-24.08,0H35.96v-.03a28.04,28.04,0,0,1,56.08,0Z" fill="#f3f5f9"/>
      <path d="M65.75,9.73V20.69a1.75,1.75,0,0,1-3.5,0V9.73c.58-.03,1.16-.04,1.75-.04S65.17,9.7,65.75,9.73Z" fill="#e1e6f0"/>
      <path d="M48.98,21.18a1.765,1.765,0,0,1-2.24-1.05l-2.4-6.61c1.07-.43,2.17-.84,3.28-1.2l2.41,6.62A1.751,1.751,0,0,1,48.98,21.18Z" fill="#e1e6f0"/>
      <path d="M38.29,31.79a1.748,1.748,0,0,1-2.46-.21l-6.96-8.29c.86-.78,1.75-1.54,2.67-2.26l6.97,8.3A1.745,1.745,0,0,1,38.29,31.79Z" fill="#e1e6f0"/>
      <path d="M25.62,40.28a1.737,1.737,0,0,1-1.51.87,1.755,1.755,0,0,1-.88-.23l-5.48-3.17c.54-1.04,1.11-2.06,1.72-3.05l5.51,3.19A1.739,1.739,0,0,1,25.62,40.28Z" fill="#e1e6f0"/>
      <path d="M24.61,55.49a1.745,1.745,0,0,1-1.72,1.44c-.1,0-.2-.01-.31-.02L12.31,55.09c.15-1.16.34-2.31.56-3.45l10.32,1.82A1.755,1.755,0,0,1,24.61,55.49Z" fill="#e1e6f0"/>
      <path d="M79.02,21.18a1.765,1.765,0,0,0,2.24-1.05l2.4-6.61c-1.07-.43-2.17-.84-3.28-1.2l-2.41,6.62A1.751,1.751,0,0,0,79.02,21.18Z" fill="#e1e6f0"/>
      <path d="M89.71,31.79a1.748,1.748,0,0,0,2.46-.21l6.96-8.29c-.86-.78-1.75-1.54-2.67-2.26l-6.97,8.3A1.745,1.745,0,0,0,89.71,31.79Z" fill="#e1e6f0"/>
      <path d="M102.38,40.28a1.737,1.737,0,0,0,1.51.87,1.755,1.755,0,0,0,.88-.23l5.48-3.17c-.54-1.04-1.11-2.06-1.72-3.05l-5.51,3.19A1.739,1.739,0,0,0,102.38,40.28Z" fill="#e1e6f0"/>
      <path d="M103.39,55.49a1.745,1.745,0,0,0,1.72,1.44c.1,0,.2-.01.31-.02l10.27-1.82c-.15-1.16-.34-2.31-.56-3.45l-10.32,1.82A1.755,1.755,0,0,0,103.39,55.49Z" fill="#e1e6f0"/>
      <path d="M14.96,78.94v9.9h-3.5v-9.9a1.75,1.75,0,0,1,3.5,0Z" fill="#e1e6f0"/>
      <path d="M27.66,81.31v7.53h-3.5V81.31a1.75,1.75,0,0,1,3.5,0Z" fill="#e1e6f0"/>
      <path d="M40.35,78.94v9.9h-3.5v-9.9a1.75,1.75,0,0,1,3.5,0Z" fill="#e1e6f0"/>
      <path d="M53.05,81.31v7.53h-3.5V81.31a1.75,1.75,0,0,1,3.5,0Z" fill="#e1e6f0"/>
      <path d="M65.75,78.94v9.9h-3.5v-9.9a1.75,1.75,0,0,1,3.5,0Z" fill="#e1e6f0"/>
      <path d="M78.45,81.31v7.53h-3.5V81.31a1.75,1.75,0,0,1,3.5,0Z" fill="#e1e6f0"/>
      <path d="M91.15,78.94v9.9h-3.5v-9.9a1.75,1.75,0,0,1,3.5,0Z" fill="#e1e6f0"/>
      <path d="M103.84,81.31v7.53h-3.5V81.31a1.75,1.75,0,0,1,3.5,0Z" fill="#e1e6f0"/>
      <path d="M116.54,78.94v9.9h-3.5v-9.9a1.75,1.75,0,0,1,3.5,0Z" fill="#e1e6f0"/>
      <path d="M28.573,99.227l3.269,3.269a8.874,8.874,0,0,1,0,12.549l-3.269,3.269H93.051V99.227Z" fill="#ffdf40"/>
      <path d="M115,118.314a13.433,13.433,0,0,0,0-19.086H103.794v19.087Z" fill="#3d4566"/>
      <rect x="93.051" y="99.227" width="10.743" height="19.086" fill="#ff7f40"/>
      <path d="M20.628,114.436l7.944,3.878,3.27-3.269a8.874,8.874,0,0,0,0-12.549l-3.269-3.269-7.945,3.879Z" fill="#ffc080"/>
      <polygon points="9.021 108.771 20.628 114.436 20.628 103.106 9.021 108.771" fill="#3d4566"/>
    </g>
    <g>
      <path d="M126.25,60.06h-8.4a53.875,53.875,0,0,0-107.694,0h-8.4A1.751,1.751,0,0,0,0,61.81V88.843a1.75,1.75,0,0,0,1.75,1.75h124.5a1.749,1.749,0,0,0,1.75-1.75V61.81A1.75,1.75,0,0,0,126.25,60.06ZM124.5,87.093h-7.958V78.935a1.75,1.75,0,0,0-3.5,0v8.158h-9.2V81.31a1.75,1.75,0,0,0-3.5,0v5.783h-9.2V78.935a1.75,1.75,0,0,0-3.5,0v8.158h-9.2V81.31a1.75,1.75,0,0,0-3.5,0v5.783h-9.2V78.935a1.75,1.75,0,0,0-3.5,0v8.158h-9.2V81.31a1.75,1.75,0,0,0-3.5,0v5.783h-9.2V78.935a1.75,1.75,0,0,0-3.5,0v8.158h-9.2V81.31a1.75,1.75,0,0,0-3.5,0v5.783h-9.2V78.935a1.75,1.75,0,0,0-3.5,0v8.158H3.5V63.56h8.372a1.75,1.75,0,0,0,1.75-1.75,50.561,50.561,0,0,1,.422-6.408l8.536,1.5a1.784,1.784,0,0,0,.306.027,1.75,1.75,0,0,0,.3-3.474L14.6,51.945a49.981,49.981,0,0,1,4.691-13.3l3.941,2.276a1.75,1.75,0,1,0,1.75-3.031l-3.978-2.3a50.755,50.755,0,0,1,9.014-10.93l5.806,6.918a1.75,1.75,0,1,0,2.681-2.25l-5.819-6.934a50.412,50.412,0,0,1,12.256-7.2l1.8,4.943a1.75,1.75,0,1,0,3.289-1.2l-1.8-4.956a50.082,50.082,0,0,1,14.023-2.5v9.2a1.75,1.75,0,1,0,3.5,0v-9.2a50.082,50.082,0,0,1,14.023,2.5l-1.8,4.956a1.75,1.75,0,0,0,3.289,1.2l1.8-4.943a50.412,50.412,0,0,1,12.256,7.2l-5.819,6.934a1.75,1.75,0,0,0,2.682,2.25l5.8-6.918A50.726,50.726,0,0,1,107,35.589l-3.978,2.3a1.75,1.75,0,0,0,1.75,3.031l3.941-2.276a49.981,49.981,0,0,1,4.691,13.3L104.81,53.46a1.75,1.75,0,0,0,.3,3.474,1.775,1.775,0,0,0,.306-.027l8.536-1.5a50.561,50.561,0,0,1,.422,6.408,1.749,1.749,0,0,0,1.75,1.75H124.5Z"/>
      <path d="M73.974,37.443a26.51,26.51,0,0,1,3.692,1.867,1.749,1.749,0,1,0,1.82-2.988A29.984,29.984,0,0,0,75.3,34.205a1.75,1.75,0,1,0-1.33,3.238Z"/>
      <path d="M85.451,43.631a1.751,1.751,0,0,0-.357,2.449,26.045,26.045,0,0,1,5.142,13.98H37.763A26.328,26.328,0,0,1,64,35.486a1.75,1.75,0,1,0,0-3.5A29.834,29.834,0,0,0,34.207,61.81a1.75,1.75,0,0,0,1.75,1.75H92.042a1.777,1.777,0,0,0,1.751-1.781A29.551,29.551,0,0,0,87.9,43.988,1.751,1.751,0,0,0,85.451,43.631Z"/>
      <path d="M115,97.478H28.573a1.56,1.56,0,0,0-.169.017c-.04,0-.079,0-.118.011a1.773,1.773,0,0,0-.452.14c-.009,0-.019,0-.028.009l-7.946,3.878L8.254,107.2a1.749,1.749,0,0,0,0,3.145l11.606,5.665,7.945,3.878c.014.006.029.008.042.015a1.736,1.736,0,0,0,.236.083c.041.012.081.029.122.038a1.779,1.779,0,0,0,.276.031c.031,0,.061.011.091.011H115a1.748,1.748,0,0,0,1.231-.507,15.182,15.182,0,0,0,0-21.573A1.747,1.747,0,0,0,115,97.478ZM18.878,111.635l-5.867-2.863,5.867-2.865ZM91.3,116.564H32.8l.281-.282a10.568,10.568,0,0,0,2.266-3.354,1.75,1.75,0,0,0-3.222-1.368,7.083,7.083,0,0,1-1.519,2.248l-2.387,2.386-5.84-2.85V104.2l5.841-2.85,2.386,2.385a1.75,1.75,0,1,0,2.475-2.474l-.282-.281H91.3Zm10.743,0H94.8V100.978h7.243Zm12.2,0h-8.7V100.978h8.706a11.687,11.687,0,0,1,0,15.586Z"/>
    </g>
  </g>
</svg>
