<?xml version="1.0" encoding="UTF-8"?>
<svg version="1.1" xmlns="http://www.w3.org/2000/svg" width="588" height="583">
<path d="M0 0 C194.04 0 388.08 0 588 0 C588 192.39 588 384.78 588 583 C393.96 583 199.92 583 0 583 C0 390.61 0 198.22 0 0 Z " fill="#FEFEFE" transform="translate(0,0)"/>
<path d="M0 0 C3.95266951 1.97633475 5.99515068 3.84105584 9 7 C9.99 7.99 10.98 8.98 12 10 C12 16.27 12 22.54 12 29 C39.39 29 66.78 29 95 29 C95 29.66 95 30.32 95 31 C94.49025635 31.2673999 93.9805127 31.5347998 93.45532227 31.81030273 C91.15670784 33.0174623 88.85958995 34.22744223 86.5625 35.4375 C85.76005859 35.85837891 84.95761719 36.27925781 84.13085938 36.71289062 C82.98520508 37.31713867 82.98520508 37.31713867 81.81640625 37.93359375 C81.10943604 38.30540771 80.40246582 38.67722168 79.67407227 39.06030273 C78.02071254 39.88912401 78.02071254 39.88912401 77 41 C75.65732587 41.08631874 74.31025678 41.10706473 72.96484375 41.09765625 C72.15595703 41.09443359 71.34707031 41.09121094 70.51367188 41.08789062 C69.66353516 41.07951172 68.81339844 41.07113281 67.9375 41.0625 C67.08349609 41.05798828 66.22949219 41.05347656 65.34960938 41.04882812 C63.23304337 41.03700373 61.11651315 41.01906769 59 41 C59.10828125 42.63582031 59.10828125 42.63582031 59.21875 44.3046875 C59.90370887 55.2274006 60.08686513 66.05499355 60 77 C54.06 77 48.12 77 42 77 C41.90754352 65.25802751 42.20578996 53.71459815 43 42 C32.77 42 22.54 42 12 42 C12.00523682 45.20581787 12.01047363 48.41163574 12.01586914 51.71459961 C12.03240274 62.27980946 12.0434703 72.84501988 12.05181217 83.41023922 C12.05704166 89.81899128 12.0641405 96.22773015 12.07543945 102.63647461 C12.08626599 108.81559441 12.09227634 114.99470148 12.09487724 121.17383003 C12.09673192 123.5370561 12.10035332 125.90028144 12.10573006 128.26350212 C12.11293738 131.56101896 12.11399107 134.85848247 12.11352539 138.15600586 C12.11712067 139.14358887 12.12071594 140.13117188 12.12442017 141.14868164 C12.1230455 142.04195663 12.12167084 142.93523163 12.12025452 143.85557556 C12.12117631 144.63633422 12.1220981 145.41709288 12.12304783 146.22151089 C12 148 12 148 11 149 C7.37 149 3.74 149 0 149 C0 113.69 0 78.38 0 42 C-22.0047729 42.03961349 -22.0047729 42.03961349 -44.00952148 42.09008789 C-46.75504518 42.09300673 -49.50056931 42.09555536 -52.24609375 42.09765625 C-52.9641066 42.10026962 -53.68211945 42.102883 -54.42189026 42.10557556 C-56.52664519 42.11285571 -58.63131842 42.11390733 -60.73608398 42.11352539 C-61.92411118 42.115746 -63.11213837 42.11796661 -64.33616638 42.12025452 C-67 42 -67 42 -68 41 C-68 37.04 -68 33.08 -68 29 C-45.56 29 -23.12 29 0 29 C0 19.43 0 9.86 0 0 Z " fill="#8EACC0" transform="translate(259,199)"/>
<path d="M0 0 C4.36713364 2.63169753 7.67020256 6.08180363 10.67578125 10.17578125 C11.07152344 10.69914062 11.46726562 11.2225 11.875 11.76171875 C14.81718647 17.15056554 15.32965977 22.77094573 15.30078125 28.80078125 C15.31689453 29.47367187 15.33300781 30.1465625 15.34960938 30.83984375 C15.35913899 40.71252527 9.90041643 47.79766618 3.30078125 54.55078125 C-5.6513933 61.33970539 -16.25826949 61.74348934 -27.01171875 60.80078125 C-31.24800693 59.93580728 -35.14510386 58.73408869 -39.01171875 56.80078125 C-39.01171875 56.14078125 -39.01171875 55.48078125 -39.01171875 54.80078125 C-40.06359375 54.52234375 -40.06359375 54.52234375 -41.13671875 54.23828125 C-46.95417357 51.32955384 -50.89194326 45.60280281 -53.3125 39.6484375 C-55.60774971 30.30074453 -55.4257076 20.10926422 -50.375 11.7578125 C-49.92511719 11.11199219 -49.47523437 10.46617187 -49.01171875 9.80078125 C-48.33109375 8.79015625 -47.65046875 7.77953125 -46.94921875 6.73828125 C-44.92484191 4.71390441 -43.82723945 4.10244418 -41.01171875 3.80078125 C-41.01171875 3.14078125 -41.01171875 2.48078125 -41.01171875 1.80078125 C-39.24174401 0.98641257 -37.47070723 0.17435185 -35.69921875 -0.63671875 C-34.71308594 -1.08917969 -33.72695312 -1.54164063 -32.7109375 -2.0078125 C-21.76997513 -6.83703612 -10.50714512 -4.77821993 0 0 Z " fill="#720F05" transform="translate(163.01171875,287.19921875)"/>
<path d="M0 0 C5.28 0 10.56 0 16 0 C19.29493619 4.27312038 20.93525407 7.2018728 23 12 C24.33786004 14.2722798 25.71320358 16.52290417 27.125 18.75 C27.78757812 19.82378906 28.45015625 20.89757812 29.1328125 22.00390625 C30.73674809 24.57758532 32.36507178 27.13350196 34 29.6875 C36 33 36 33 36 35 C36.66 35 37.32 35 38 35 C38.24105469 34.33613281 38.48210937 33.67226563 38.73046875 32.98828125 C40.32972854 29.22386974 42.29023904 25.73828155 44.3125 22.1875 C44.71549316 21.47480957 45.11848633 20.76211914 45.53369141 20.02783203 C47.57809147 16.43057715 49.65665788 12.86871923 51.875 9.375 C54.2984357 5.64841822 54.2984357 5.64841822 57 0 C62.28 0 67.56 0 73 0 C73 20.79 73 41.58 73 63 C67.39 63 61.78 63 56 63 C56 53.1 56 43.2 56 33 C55.34 33 54.68 33 54 33 C53.89816406 33.54140625 53.79632813 34.0828125 53.69140625 34.640625 C52.82242393 37.60596581 51.44527709 40.05524946 49.9375 42.75 C49.38964844 43.73484375 48.84179688 44.7196875 48.27734375 45.734375 C47.85582031 46.48203125 47.43429687 47.2296875 47 48 C46.34 48 45.68 48 45 48 C44.566875 49.11375 44.566875 49.11375 44.125 50.25 C43.17631737 52.56900199 42.13440221 54.76932676 41 57 C37.75808962 57.79393724 35.21293802 57.99570284 32 57 C28.96059237 53.37468247 27.07708222 49.22852299 25 45 C23.89527022 43.09228379 22.7719995 41.19510489 21.625 39.3125 C21.14289063 38.50425781 20.66078125 37.69601562 20.1640625 36.86328125 C19.13403598 35.0590216 19.13403598 35.0590216 18 34 C17.67 43.57 17.34 53.14 17 63 C11.39 63 5.78 63 0 63 C0 42.21 0 21.42 0 0 Z " fill="#74130A" transform="translate(331,284)"/>
<path d="M0 0 C0.79075928 0.00523682 1.58151855 0.01047363 2.39624023 0.01586914 C3.67724609 0.02070313 3.67724609 0.02070313 4.98413086 0.02563477 C5.88196289 0.03401367 6.77979492 0.04239258 7.70483398 0.05102539 C8.6065332 0.05553711 9.50823242 0.06004883 10.43725586 0.06469727 C12.67234712 0.07652315 14.90730835 0.09300319 17.14233398 0.11352539 C17.540896 1.11017212 17.540896 1.11017212 17.94750977 2.12695312 C18.63401534 3.84286227 19.32147944 5.55838801 20.00952148 7.27368164 C20.70955382 9.02859029 21.40353061 10.78594479 22.08764648 12.54711914 C24.40807215 18.48467894 27.01498533 24.25827017 29.70874023 30.03540039 C31.17498875 33.18363971 32.60446028 36.34434878 34.00170898 39.52368164 C34.96131031 41.70250247 35.93270546 43.87528884 36.90795898 46.04711914 C37.54878505 47.48583168 38.18940841 48.92463453 38.82983398 50.36352539 C39.13977295 51.04970947 39.44971191 51.73589355 39.76904297 52.44287109 C41.37896467 56.0788515 42.35320014 59.16785615 43.14233398 63.11352539 C36.87233398 63.11352539 30.60233398 63.11352539 24.14233398 63.11352539 C22.16233398 57.66852539 22.16233398 57.66852539 20.14233398 52.11352539 C11.56233398 52.11352539 2.98233398 52.11352539 -5.85766602 52.11352539 C-7.17766602 55.74352539 -8.49766602 59.37352539 -9.85766602 63.11352539 C-15.79766602 63.11352539 -21.73766602 63.11352539 -27.85766602 63.11352539 C-27.0798706 58.4467529 -26.49976206 55.90584785 -24.54516602 51.86352539 C-22.84028072 48.25289188 -21.24048104 44.64828511 -19.79516602 40.92602539 C-18.32500094 37.17354761 -16.6380921 33.62189968 -14.79125977 30.04321289 C-13.54186706 27.46078613 -12.60395465 24.79913969 -11.63500977 22.10180664 C-10.84706017 20.08639788 -9.92329367 18.21750662 -8.92016602 16.30102539 C-6.75572242 12.12198429 -5.22369396 7.77927167 -3.68969727 3.33618164 C-2.49797316 0.15265574 -2.49797316 0.15265574 0 0 Z " fill="#731007" transform="translate(437.857666015625,283.886474609375)"/>
<path d="M0 0 C16.5 0 33 0 50 0 C50 4.62 50 9.24 50 14 C49 15 49 15 46.13256836 15.11352539 C44.88096924 15.10828857 43.62937012 15.10305176 42.33984375 15.09765625 C41.34314415 15.09553383 41.34314415 15.09553383 40.3263092 15.09336853 C38.19666101 15.08775518 36.06711661 15.07520054 33.9375 15.0625 C32.49674631 15.05748671 31.05599097 15.05292351 29.61523438 15.04882812 C26.07678898 15.03778145 22.53840461 15.02050792 19 15 C19 18.96 19 22.92 19 27 C27.91 27 36.82 27 46 27 C46 31.95 46 36.9 46 42 C37.09 42 28.18 42 19 42 C19 48.93 19 55.86 19 63 C12.73 63 6.46 63 0 63 C0 42.21 0 21.42 0 0 Z " fill="#740D02" transform="translate(187,284)"/>
<path d="M0 0 C5.94 0 11.88 0 18 0 C18 20.79 18 41.58 18 63 C12.06 63 6.12 63 0 63 C0 42.21 0 21.42 0 0 Z " fill="#730D02" transform="translate(301,284)"/>
<path d="M0 0 C8.91 0 17.82 0 27 0 C27 0.66 27 1.32 27 2 C27.66 2 28.32 2 29 2 C29 4.31 29 6.62 29 9 C29.66 9 30.32 9 31 9 C31 6.36 31 3.72 31 1 C33.31 1 35.62 1 38 1 C38 3.31 38 5.62 38 8 C36.35 8 34.7 8 33 8 C34.14183219 11.78342595 34.14183219 11.78342595 37.09375 14.1875 C39 16 39 16 39.171875 19.57421875 C39.05247458 20.94732363 38.91104071 22.31865401 38.75 23.6875 C38.68425781 24.38939453 38.61851562 25.09128906 38.55078125 25.81445312 C38.38598044 27.54486164 38.19545358 29.27278524 38 31 C37.34 31 36.68 31 36 31 C36.50144531 31.63292969 37.00289063 32.26585937 37.51953125 32.91796875 C39.57819672 37.20368657 39.10222012 40.6624965 38.6875 45.3125 C38.62626953 46.14845703 38.56503906 46.98441406 38.50195312 47.84570312 C38.34947511 49.89829176 38.17674275 51.94935823 38 54 C37.34 54 36.68 54 36 54 C36 54.66 36 55.32 36 56 C36.66 56 37.32 56 38 56 C38 59.63 38 63.26 38 67 C36.02 66.505 36.02 66.505 34 66 C35.485 67.98 35.485 67.98 37 70 C36.690625 70.598125 36.38125 71.19625 36.0625 71.8125 C34.89790296 74.08956772 34.89790296 74.08956772 34 77 C34.66 77 35.32 77 36 77 C36.495 75.515 36.495 75.515 37 74 C37.33 74 37.66 74 38 74 C38.495 80.435 38.495 80.435 39 87 C38.34 87 37.68 87 37 87 C36.814375 87.86625 36.814375 87.86625 36.625 88.75 C35.99351176 91.02335767 35.11141809 92.9253529 34 95 C34.66 95 35.32 95 36 95 C36 94.34 36 93.68 36 93 C36.66 93 37.32 93 38 93 C38 96.63 38 100.26 38 104 C35 102.25 35 102.25 32 100 C32 98.68 32 97.36 32 96 C31.34 96 30.68 96 30 96 C30.01160156 95.24074219 30.02320313 94.48148437 30.03515625 93.69921875 C30.04417969 92.70535156 30.05320312 91.71148437 30.0625 90.6875 C30.07410156 89.70136719 30.08570313 88.71523438 30.09765625 87.69921875 C30.12329862 84.90036151 30.12329862 84.90036151 29 82 C28.91010626 79.71540326 28.88242795 77.42820674 28.88647461 75.1418457 C28.88632858 74.44890411 28.88618256 73.75596252 28.8860321 73.04202271 C28.88672837 70.75324363 28.8945074 68.4645461 28.90234375 66.17578125 C28.90420894 64.58823186 28.90563237 63.00068189 28.90663147 61.41313171 C28.91044866 57.2357728 28.92027214 53.05844869 28.93133545 48.88110352 C28.94336574 43.8684028 28.94795561 38.85569045 28.95378876 33.84297943 C28.96348431 26.22862876 28.98264644 18.61435443 29 11 C6.89 11 -15.22 11 -38 11 C-38 10.67 -38 10.34 -38 10 C-16.22 10 5.56 10 28 10 C28 9.34 28 8.68 28 8 C26.90042969 8.165 25.80085938 8.33 24.66796875 8.5 C16.77598413 9.45958242 11.16816815 10.07609359 4.4375 5.125 C1.80859375 2.8828125 1.80859375 2.8828125 0 1 C0 0.67 0 0.34 0 0 Z " fill="#7F9CAD" transform="translate(230,230)"/>
<path d="M0 0 C3.7624814 2.49393836 6.6209666 5.19356353 8.3125 9.4375 C9.07423141 15.42026542 9.05925937 20.97182004 6.3125 26.4375 C0.42276776 31.82597843 -3.05870614 33.9361951 -10.96484375 33.73828125 C-14.94521643 33.29855572 -16.82157755 32.2351862 -19.6875 29.4375 C-23.8248114 23.83672472 -25.56710979 19.36442707 -24.6875 12.4375 C-23.84907718 9.6602244 -22.83399422 7.11265318 -21.6875 4.4375 C-21.0275 4.4375 -20.3675 4.4375 -19.6875 4.4375 C-19.48125 3.81875 -19.275 3.2 -19.0625 2.5625 C-15.26370753 -3.30836109 -5.70539065 -2.88990439 0 0 Z " fill="#FCFBFA" transform="translate(151.6875,299.5625)"/>
<path d="M0 0 C4 2 4 2 5.25 4.625 C5.4975 5.40875 5.745 6.1925 6 7 C4.68 6.34 3.36 5.68 2 5 C1.94150446 8.20825562 1.90623838 11.41637233 1.875 14.625 C1.84986328 15.98044922 1.84986328 15.98044922 1.82421875 17.36328125 C1.78798357 22.32750152 2.03555854 26.34411907 4 31 C3.505 31.495 3.505 31.495 3 32 C2.76924918 33.34747084 2.58846937 34.70377565 2.4375 36.0625 C2.293125 37.361875 2.14875 38.66125 2 40 C1.34 40 0.68 40 0 40 C0 37.69 0 35.38 0 33 C-0.66 33 -1.32 33 -2 33 C-2 32.34 -2 31.68 -2 31 C-10.58 31.33 -19.16 31.66 -28 32 C-18.75865658 38.95321948 -18.75865658 38.95321948 -8.875 39.4375 C-8.10929687 39.40591797 -7.34359375 39.37433594 -6.5546875 39.34179688 C-4.70139582 39.26071536 -2.8501298 39.1352183 -1 39 C-1 39.66 -1 40.32 -1 41 C-23.11 41 -45.22 41 -68 41 C-68 37.04 -68 33.08 -68 29 C-45.56 29 -23.12 29 0 29 C0 19.43 0 9.86 0 0 Z " fill="#7B99AE" transform="translate(259,199)"/>
<path d="M0 0 C2.31 0 4.62 0 7 0 C7 0.66 7 1.32 7 2 C7.66 2 8.32 2 9 2 C9.23074219 2.556875 9.46148437 3.11375 9.69921875 3.6875 C11.77151229 8.53650308 14.07087787 12.91700797 17.046875 17.2734375 C18 19 18 19 18 22 C24.27807455 16.66363663 27.44516508 7.21631489 31 0 C33.64 0 36.28 0 39 0 C39 1.32 39 2.64 39 4 C39.66 4 40.32 4 41 4 C41.48919922 5.10408203 41.48919922 5.10408203 41.98828125 6.23046875 C42.42527344 7.20628906 42.86226563 8.18210937 43.3125 9.1875 C43.74175781 10.15042969 44.17101562 11.11335938 44.61328125 12.10546875 C45.94407795 15.01997999 45.94407795 15.01997999 47.66796875 17.67578125 C49 20 49 20 49 23 C47.02 23 45.04 23 43 23 C42.34 21.68 41.68 20.36 41 19 C36.71 19 32.42 19 28 19 C27.34 20.32 26.68 21.64 26 23 C21.38 23 16.76 23 12 23 C11.34 21.35 10.68 19.7 10 18 C5.71 18 1.42 18 -3 18 C-3.33 19.65 -3.66 21.3 -4 23 C-6.31 23 -8.62 23 -11 23 C-9.8804376 18.01285841 -8.3307482 14.81071962 -5.23828125 10.76953125 C-3.31531414 8.02156879 -2.22218382 5.11656874 -1 2 C-0.67 1.34 -0.34 0.68 0 0 Z " fill="#789FBA" transform="translate(409,366)"/>
<path d="M0 0 C16.5 0 33 0 50 0 C50 4.62 50 9.24 50 14 C49 15 49 15 46.13256836 15.11352539 C44.88096924 15.10828857 43.62937012 15.10305176 42.33984375 15.09765625 C41.34314415 15.09553383 41.34314415 15.09553383 40.3263092 15.09336853 C38.19666101 15.08775518 36.06711661 15.07520054 33.9375 15.0625 C32.49674631 15.05748671 31.05599097 15.05292351 29.61523438 15.04882812 C26.07678898 15.03778145 22.53840461 15.02050792 19 15 C19 18.96 19 22.92 19 27 C27.91 27 36.82 27 46 27 C46 31.95 46 36.9 46 42 C37.09 42 28.18 42 19 42 C19 48.93 19 55.86 19 63 C12.73 63 6.46 63 0 63 C0 42.21 0 21.42 0 0 Z M22.20141602 2.37231445 C19.91107113 2.43826097 17.62060596 2.49743434 15.33007812 2.55664062 C13.87498796 2.59854241 12.41990927 2.64084493 10.96484375 2.68359375 C9.6512085 2.72025146 8.33757324 2.75690918 6.98413086 2.79467773 C4.11736835 2.66366451 4.11736835 2.66366451 3 4 C2.84003847 5.99638072 2.74828047 7.99826593 2.68359375 10 C2.64161865 11.26900146 2.59964355 12.53800293 2.55639648 13.84545898 C2.5163949 15.23029537 2.4767706 16.61514269 2.4375 18 C2.41632111 18.69118927 2.39514221 19.38237854 2.37332153 20.09451294 C1.9665695 33.39682518 1.88286641 46.69182228 2 60 C6.90068963 61.63356321 11.85738476 61.05529694 17 61 C17.33 54.73 17.66 48.46 18 42 C26.91 41.67 35.82 41.34 45 41 C45 37.04 45 33.08 45 29 C42.09380859 29.01740234 42.09380859 29.01740234 39.12890625 29.03515625 C36.60677179 29.04453221 34.0846363 29.05363262 31.5625 29.0625 C30.28310547 29.07087891 29.00371094 29.07925781 27.68554688 29.08789062 C25.86313477 29.09272461 25.86313477 29.09272461 24.00390625 29.09765625 C22.87799072 29.10289307 21.7520752 29.10812988 20.59204102 29.11352539 C18 29 18 29 17 28 C16.90090698 25.66839945 16.87029496 23.33370058 16.875 21 C16.87242187 19.72125 16.86984375 18.4425 16.8671875 17.125 C17 14 17 14 18 13 C20.14386657 12.84141158 22.29266838 12.74870702 24.44140625 12.68359375 C26.39916992 12.62075195 26.39916992 12.62075195 28.39648438 12.55664062 C29.7851533 12.51682392 31.17382522 12.47711175 32.5625 12.4375 C33.95509183 12.39432011 35.34767028 12.350706 36.74023438 12.30664062 C40.16004801 12.20014124 43.57993763 12.09813077 47 12 C47 8.7 47 5.4 47 2 C38.72816522 1.94249966 30.46880767 2.12971291 22.20141602 2.37231445 Z " fill="#732C26" transform="translate(187,284)"/>
<path d="M0 0 C-0.99 0.99 -1.98 1.98 -3 3 C-2.44538086 2.98952637 -1.89076172 2.97905273 -1.31933594 2.96826172 C1.20372959 2.92657996 3.72672253 2.90063562 6.25 2.875 C7.55904297 2.84986328 7.55904297 2.84986328 8.89453125 2.82421875 C9.73886719 2.81777344 10.58320313 2.81132812 11.453125 2.8046875 C12.22817383 2.79421387 13.00322266 2.78374023 13.80175781 2.77294922 C16 3 16 3 20 5 C15.38 5 10.76 5 6 5 C6.10828125 6.65322266 6.10828125 6.65322266 6.21875 8.33984375 C6.87737758 18.91780189 7.08982277 29.40091339 7 40 C1.39 40 -4.22 40 -10 40 C-10 35.05 -10 30.1 -10 25 C-9.34 25.33 -8.68 25.66 -8 26 C-6.14266563 25.93780616 -4.28728609 25.80346698 -2.4375 25.625 C-1.44621094 25.53476562 -0.45492187 25.44453125 0.56640625 25.3515625 C2.94350162 25.25607875 2.94350162 25.25607875 4 24 C4.08651611 22.58429877 4.10704904 21.164405 4.09765625 19.74609375 C4.09443359 18.89208984 4.09121094 18.03808594 4.08789062 17.15820312 C4.07951172 16.26037109 4.07113281 15.36253906 4.0625 14.4375 C4.05798828 13.53580078 4.05347656 12.63410156 4.04882812 11.70507812 C4.03700244 9.47002411 4.01906638 7.23500398 4 5 C0.37 5 -3.26 5 -7 5 C-7 10.94 -7 16.88 -7 23 C-7.66 23 -8.32 23 -9 23 C-9 17.06 -9 11.12 -9 5 C-19.56 5 -30.12 5 -41 5 C-39.68 3.68 -38.36 2.36 -37 1 C-36.34 1 -35.68 1 -35 1 C-35 1.66 -35 2.32 -35 3 C-28.07 3 -21.14 3 -14 3 C-14 2.34 -14 1.68 -14 1 C-11.69 1.33 -9.38 1.66 -7 2 C-7 1.34 -7 0.68 -7 0 C-3.98968256 -0.93423645 -3.13349732 -1.04449911 0 0 Z " fill="#779AB3" transform="translate(312,235)"/>
<path d="M0 0 C0.33 0 0.66 0 1 0 C1 35.31 1 70.62 1 107 C-2.63 107 -6.26 107 -10 107 C-10 95.12 -10 83.24 -10 71 C-7.53729712 74.69405432 -7.77014583 76.63277072 -8 81 C-8.5 83.4375 -8.5 83.4375 -9 85 C-8.34 85 -7.68 85 -7 85 C-7 86.32 -7 87.64 -7 89 C-6.0409375 89.4640625 -6.0409375 89.4640625 -5.0625 89.9375 C-3 91 -3 91 -2 92 C-1.67 88.7 -1.34 85.4 -1 82 C-1.66 82 -2.32 82 -3 82 C-3 82.66 -3 83.32 -3 84 C-4.485 84.495 -4.485 84.495 -6 85 C-4.80100302 81.9168649 -3.52299523 78.93720508 -2 76 C-1.34 76 -0.68 76 0 76 C-0.66 72.04 -1.32 68.08 -2 64 C-2.99 64.99 -3.98 65.98 -5 67 C-5.33 66.34 -5.66 65.68 -6 65 C-5.46375 64.443125 -4.9275 63.88625 -4.375 63.3125 C-3.92125 62.549375 -3.4675 61.78625 -3 61 C-3.75285597 58.40952023 -3.75285597 58.40952023 -5 56 C-5 55.01 -5 54.02 -5 53 C-3.68 53.99 -2.36 54.98 -1 56 C-1 52.37 -1 48.74 -1 45 C-1.66 45 -2.32 45 -3 45 C-3 44.34 -3 43.68 -3 43 C-2.34 43 -1.68 43 -1 43 C-1.17660156 42.4946875 -1.35320312 41.989375 -1.53515625 41.46875 C-2.40234038 36.86320066 -1.50107193 32.16586686 -1.05859375 27.53125 C-1.00312459 24.1883086 -1.17472624 22.72056014 -3 20 C-2.34 20 -1.68 20 -1 20 C-1 18.95199219 -1 17.90398437 -1 16.82421875 C-1 2 -1 2 0 0 Z " fill="#7B99AE" transform="translate(269,241)"/>
<path d="M0 0 C10.89 0 21.78 0 33 0 C33 5.94 33 11.88 33 18 C33.66 18 34.32 18 35 18 C35 12.06 35 6.12 35 0 C38.63 0 42.26 0 46 0 C46.33 6.6 46.66 13.2 47 20 C44.29816945 21.35091528 41.88191794 21.33858058 38.875 21.5625 C36.93625 21.706875 34.9975 21.85125 33 22 C32.67 26.29 32.34 30.58 32 35 C37.61 35 43.22 35 49 35 C49 35.33 49 35.66 49 36 C43.06 36 37.12 36 31 36 C30.90754352 24.25802751 31.20578996 12.71459815 32 1 C21.77 1 11.54 1 1 1 C1 35.98 1 70.96 1 107 C0.67 107 0.34 107 0 107 C0 71.69 0 36.38 0 0 Z " fill="#B2C9D6" transform="translate(270,240)"/>
<path d="M0 0 C6 0 6 0 8.23046875 1.8984375 C9.19919922 3.12433594 9.19919922 3.12433594 10.1875 4.375 C12.42848899 7.15966088 13.9985758 8.99905053 17 11 C17 11.66 17 12.32 17 13 C17.66 13 18.32 13 19 13 C19 8.71 19 4.42 19 0 C20.98 0 22.96 0 25 0 C25 7.59 25 15.18 25 23 C19 23 19 23 17.125 21.625 C16 20 16 20 16 18 C15.4225 17.773125 14.845 17.54625 14.25 17.3125 C11.43572387 15.67083893 9.97262267 13.56440947 8 11 C7.34 10.67 6.68 10.34 6 10 C6 14.29 6 18.58 6 23 C4.02 23 2.04 23 0 23 C0 15.41 0 7.82 0 0 Z " fill="#7BA1BC" transform="translate(344,366)"/>
<path d="M0 0 C8.91 0 17.82 0 27 0 C27 0.66 27 1.32 27 2 C27.66 2 28.32 2 29 2 C29 4.31 29 6.62 29 9 C29.66 9 30.32 9 31 9 C31 6.36 31 3.72 31 1 C33.31 1 35.62 1 38 1 C38 3.31 38 5.62 38 8 C36.35 8 34.7 8 33 8 C34.07401108 10.91517292 34.77810176 12.77810176 37 15 C37 18 37 18 35.125 20.1875 C33 22 33 22 31 22 C31 18.04 31 14.08 31 10 C30.34 10.33 29.68 10.66 29 11 C26.87583 11.09175034 24.74870545 11.11750694 22.62255859 11.11352539 C21.64188667 11.11374443 21.64188667 11.11374443 20.6414032 11.1139679 C18.47704773 11.11327036 16.31277796 11.1054854 14.1484375 11.09765625 C12.64913988 11.09579151 11.14984166 11.09436787 9.65054321 11.09336853 C5.70168378 11.08954779 1.75286104 11.07972128 -2.19598389 11.06866455 C-6.22440087 11.05844091 -10.25282378 11.05386887 -14.28125 11.04882812 C-22.18751685 11.03809862 -30.09375386 11.0210275 -38 11 C-38 10.67 -38 10.34 -38 10 C-16.22 10 5.56 10 28 10 C28 9.34 28 8.68 28 8 C26.90042969 8.165 25.80085938 8.33 24.66796875 8.5 C16.77598413 9.45958242 11.16816815 10.07609359 4.4375 5.125 C1.80859375 2.8828125 1.80859375 2.8828125 0 1 C0 0.67 0 0.34 0 0 Z " fill="#B8D1DF" transform="translate(230,230)"/>
<path d="M0 0 C3.42054006 1.14018002 4.2426201 1.92458518 6 5 C5.6875 7.25 5.6875 7.25 5 9 C5.66 9 6.32 9 7 9 C7 12.63 7 16.26 7 20 C5.68 19.67 4.36 19.34 3 19 C3.99 20.32 4.98 21.64 6 23 C5.5359375 23.8971875 5.5359375 23.8971875 5.0625 24.8125 C3.89790296 27.08956772 3.89790296 27.08956772 3 30 C3.66 30 4.32 30 5 30 C5.33 29.01 5.66 28.02 6 27 C6.33 27 6.66 27 7 27 C7.33 31.29 7.66 35.58 8 40 C7.34 40 6.68 40 6 40 C5.87625 40.5775 5.7525 41.155 5.625 41.75 C4.99351176 44.02335767 4.11141809 45.9253529 3 48 C3.66 48 4.32 48 5 48 C5 47.34 5 46.68 5 46 C5.66 46 6.32 46 7 46 C7 49.63 7 53.26 7 57 C4 55.25 4 55.25 1 53 C1 51.68 1 50.36 1 49 C0.34 49 -0.32 49 -1 49 C-0.98839844 48.31035156 -0.97679687 47.62070312 -0.96484375 46.91015625 C-0.90657876 40.84227348 -1.21096052 35.01642604 -2 29 C-1.67 29 -1.34 29 -1 29 C-0.67 19.43 -0.34 9.86 0 0 Z " fill="#85A4BA" transform="translate(261,277)"/>
<path d="M0 0 C1.43859375 -0.02126953 1.43859375 -0.02126953 2.90625 -0.04296875 C5.5 0.1875 5.5 0.1875 8.5 2.1875 C8.17 3.1775 7.84 4.1675 7.5 5.1875 C3.54 5.1875 -0.42 5.1875 -4.5 5.1875 C-4.5 6.1775 -4.5 7.1675 -4.5 8.1875 C-3.57316406 8.46464844 -2.64632813 8.74179687 -1.69140625 9.02734375 C0.10490234 9.57068359 0.10490234 9.57068359 1.9375 10.125 C3.13246094 10.48464844 4.32742188 10.84429687 5.55859375 11.21484375 C8.5 12.1875 8.5 12.1875 9.5 13.1875 C9.9375 16 9.9375 16 9.5 19.1875 C6.37476431 21.82658792 4.63534147 23.1875 0.5 23.1875 C1.015625 23.579375 1.53125 23.97125 2.0625 24.375 C2.536875 24.973125 3.01125 25.57125 3.5 26.1875 C3.1875 28.875 3.1875 28.875 2.5 31.1875 C-0.14 31.1875 -2.78 31.1875 -5.5 31.1875 C-5.5 30.5275 -5.5 29.8675 -5.5 29.1875 C-3.85 29.1875 -2.2 29.1875 -0.5 29.1875 C-0.5 28.1975 -0.5 27.2075 -0.5 26.1875 C-1.49 25.8575 -2.48 25.5275 -3.5 25.1875 C-3.17 24.5275 -2.84 23.8675 -2.5 23.1875 C-5.14 22.8575 -7.78 22.5275 -10.5 22.1875 C-10.83 20.8675 -11.16 19.5475 -11.5 18.1875 C-10.51 17.8575 -9.52 17.5275 -8.5 17.1875 C-7.84 17.5175 -7.18 17.8475 -6.5 18.1875 C-4.79297265 18.25746014 -3.08331997 18.27190154 -1.375 18.25 C-0.46492188 18.24097656 0.44515625 18.23195313 1.3828125 18.22265625 C2.08148438 18.21105469 2.78015625 18.19945312 3.5 18.1875 C3.5 17.1975 3.5 16.2075 3.5 15.1875 C-2.44 14.1975 -2.44 14.1975 -8.5 13.1875 C-8.5 12.5275 -8.5 11.8675 -8.5 11.1875 C-9.49 10.8575 -10.48 10.5275 -11.5 10.1875 C-11.86627907 4.69331395 -11.86627907 4.69331395 -10.1875 2.375 C-6.911017 0.06932678 -3.8778829 0.02606104 0 0 Z " fill="#81A3BA" transform="translate(386.5,365.8125)"/>
<path d="M0 0 C22.44 0 44.88 0 68 0 C68 0.33 68 0.66 68 1 C55.13 1.33 42.26 1.66 29 2 C29 2.66 29 3.32 29 4 C29.928125 3.773125 30.85625 3.54625 31.8125 3.3125 C35 3 35 3 36.625 4.3125 C37.305625 5.1478125 37.305625 5.1478125 38 6 C40.09989652 7.17574711 40.09989652 7.17574711 42 8 C42 8.33 42 8.66 42 9 C36.39 9 30.78 9 25 9 C25.33 8.34 25.66 7.68 26 7 C22.94689595 7.5048177 22.94689595 7.5048177 20.75 9.5625 C17.87004955 11.92817358 14.528133 11.28328075 11 11 C8.64698273 10.73462211 6.33731467 10.38955245 4 10 C4 8.02 4 6.04 4 4 C3.01 3.67 2.02 3.34 1 3 C1 5.97 1 8.94 1 12 C0.67 12 0.34 12 0 12 C0 8.04 0 4.08 0 0 Z " fill="#94B2C5" transform="translate(191,228)"/>
<path d="M0 0 C5.94 0 11.88 0 18 0 C18 20.79 18 41.58 18 63 C16.35 62.67 14.7 62.34 13 62 C13.33 61.01 13.66 60.02 14 59 C14.66 59 15.32 59 16 59 C15.67 40.85 15.34 22.7 15 4 C11.37 4 7.74 4 4 4 C3.67 11.59 3.34 19.18 3 27 C2.67 27 2.34 27 2 27 C2.00785522 25.8718689 2.00785522 25.8718689 2.01586914 24.72094727 C2.03657227 21.33480658 2.04963877 17.94867916 2.0625 14.5625 C2.07087891 13.37849609 2.07925781 12.19449219 2.08789062 10.97460938 C2.09272461 9.28754883 2.09272461 9.28754883 2.09765625 7.56640625 C2.10289307 6.52427979 2.10812988 5.48215332 2.11352539 4.40844727 C2.27305556 2.04871253 2.27305556 2.04871253 1 1 C1 21.46 1 41.92 1 63 C0.67 63 0.34 63 0 63 C0 42.21 0 21.42 0 0 Z " fill="#762F27" transform="translate(301,284)"/>
<path d="M0 0 C0.33 0 0.66 0 1 0 C1 27.72 1 55.44 1 84 C0.67 83.34 0.34 82.68 0 82 C-0.99 82 -1.98 82 -3 82 C-3 82.66 -3 83.32 -3 84 C-4.485 84.495 -4.485 84.495 -6 85 C-4.80100302 81.9168649 -3.52299523 78.93720508 -2 76 C-1.34 76 -0.68 76 0 76 C-0.66 72.04 -1.32 68.08 -2 64 C-2.99 64.99 -3.98 65.98 -5 67 C-5.33 66.34 -5.66 65.68 -6 65 C-5.46375 64.443125 -4.9275 63.88625 -4.375 63.3125 C-3.92125 62.549375 -3.4675 61.78625 -3 61 C-3.75285597 58.40952023 -3.75285597 58.40952023 -5 56 C-5 55.01 -5 54.02 -5 53 C-3.68 53.99 -2.36 54.98 -1 56 C-1 52.37 -1 48.74 -1 45 C-1.66 45 -2.32 45 -3 45 C-3 44.34 -3 43.68 -3 43 C-2.34 43 -1.68 43 -1 43 C-1.17660156 42.4946875 -1.35320312 41.989375 -1.53515625 41.46875 C-2.40234038 36.86320066 -1.50107193 32.16586686 -1.05859375 27.53125 C-1.00312459 24.1883086 -1.17472624 22.72056014 -3 20 C-2.34 20 -1.68 20 -1 20 C-1 18.95199219 -1 17.90398437 -1 16.82421875 C-1 2 -1 2 0 0 Z " fill="#7B9BAF" transform="translate(269,241)"/>
<path d="M0 0 C1.25361328 0.00966797 2.50722656 0.01933594 3.79882812 0.02929688 C5.10916016 0.05443359 6.41949219 0.07957031 7.76953125 0.10546875 C9.10480288 0.12051908 10.44009062 0.13420688 11.77539062 0.14648438 C15.04467701 0.18189181 18.31315218 0.23127985 21.58203125 0.29296875 C21.58203125 0.95296875 21.58203125 1.61296875 21.58203125 2.29296875 C22.59265625 2.21046875 23.60328125 2.12796875 24.64453125 2.04296875 C29.48478493 2.35028644 31.57571392 3.67659825 35.58203125 6.29296875 C35.58203125 6.62296875 35.58203125 6.95296875 35.58203125 7.29296875 C29.97203125 7.29296875 24.36203125 7.29296875 18.58203125 7.29296875 C18.91203125 6.30296875 19.24203125 5.31296875 19.58203125 4.29296875 C18.92976563 4.46054688 18.2775 4.628125 17.60546875 4.80078125 C12.28856335 6.0398241 8.7161221 6.72490652 3.58203125 4.29296875 C3.58203125 3.63296875 3.58203125 2.97296875 3.58203125 2.29296875 C1.93203125 2.29296875 0.28203125 2.29296875 -1.41796875 2.29296875 C-1.41796875 2.95296875 -1.41796875 3.61296875 -1.41796875 4.29296875 C1.05703125 5.28296875 1.05703125 5.28296875 3.58203125 6.29296875 C3.58203125 6.62296875 3.58203125 6.95296875 3.58203125 7.29296875 C-2.02796875 7.29296875 -7.63796875 7.29296875 -13.41796875 7.29296875 C-12.09796875 5.97296875 -10.77796875 4.65296875 -9.41796875 3.29296875 C-8.97283936 2.72151123 -8.52770996 2.15005371 -8.0690918 1.5612793 C-5.48736752 -0.4218728 -3.20275681 -0.04347634 0 0 Z " fill="#97B6CB" transform="translate(292.41796875,229.70703125)"/>
<path d="M0 0 C11.22 0 22.44 0 34 0 C30.87074506 2.34694121 27.96323405 4.24775707 24.5625 6.125 C23.63566406 6.64320313 22.70882813 7.16140625 21.75390625 7.6953125 C17.36492161 9.77463288 14.62173169 10.16058815 10 9 C8.48729395 8.85870882 6.97071872 8.75537183 5.453125 8.68359375 C4.60878906 8.64169922 3.76445312 8.59980469 2.89453125 8.55664062 C2.02183594 8.51732422 1.14914062 8.47800781 0.25 8.4375 C-0.63816406 8.39431641 -1.52632813 8.35113281 -2.44140625 8.30664062 C-4.62745963 8.20086385 -6.81362089 8.09877454 -9 8 C-8.67 7.01 -8.34 6.02 -8 5 C-7.34 5.33 -6.68 5.66 -6 6 C-3.62597499 6.07116382 -1.24999323 6.08409085 1.125 6.0625 C2.40632813 6.05347656 3.68765625 6.04445312 5.0078125 6.03515625 C5.99523437 6.02355469 6.98265625 6.01195312 8 6 C5.36 4.68 2.72 3.36 0 2 C0 1.34 0 0.68 0 0 Z " fill="#8AA9BE" transform="translate(318,230)"/>
<path d="M0 0 C7.92 0 15.84 0 24 0 C24 1.32 24 2.64 24 4 C21.03 4 18.06 4 15 4 C15 10.27 15 16.54 15 23 C13.02 23 11.04 23 9 23 C9 16.73 9 10.46 9 4 C6.03 4 3.06 4 0 4 C0 2.68 0 1.36 0 0 Z " fill="#749BBA" transform="translate(457,366)"/>
<path d="M0 0 C1.02787125 0.00212242 1.02787125 0.00212242 2.07650757 0.00428772 C4.26719511 0.0098895 6.4577808 0.02244219 8.6484375 0.03515625 C10.13281102 0.04017103 11.61718615 0.04473397 13.1015625 0.04882812 C16.74222065 0.05985948 20.38281914 0.07712526 24.0234375 0.09765625 C24.0234375 0.42765625 24.0234375 0.75765625 24.0234375 1.09765625 C14.1234375 1.09765625 4.2234375 1.09765625 -5.9765625 1.09765625 C-5.9765625 5.05765625 -5.9765625 9.01765625 -5.9765625 13.09765625 C2.9334375 13.09765625 11.8434375 13.09765625 21.0234375 13.09765625 C21.0234375 18.04765625 21.0234375 22.99765625 21.0234375 28.09765625 C12.1134375 28.09765625 3.2034375 28.09765625 -5.9765625 28.09765625 C-5.9765625 35.02765625 -5.9765625 41.95765625 -5.9765625 49.09765625 C-6.3065625 49.09765625 -6.6365625 49.09765625 -6.9765625 49.09765625 C-6.9765625 41.83765625 -6.9765625 34.57765625 -6.9765625 27.09765625 C1.9334375 27.09765625 10.8434375 27.09765625 20.0234375 27.09765625 C20.0234375 23.13765625 20.0234375 19.17765625 20.0234375 15.09765625 C19.0334375 15.59265625 19.0334375 15.59265625 18.0234375 16.09765625 C13.8616443 16.34042752 9.6915187 16.28285344 5.5234375 16.28515625 C4.35683594 16.29740234 3.19023437 16.30964844 1.98828125 16.32226562 C0.31958984 16.32516602 0.31958984 16.32516602 -1.3828125 16.328125 C-2.40697266 16.33223389 -3.43113281 16.33634277 -4.48632812 16.34057617 C-6.9765625 16.09765625 -6.9765625 16.09765625 -8.9765625 14.09765625 C-9.171875 11.05859375 -9.171875 11.05859375 -9.1015625 7.47265625 C-9.08351562 6.28414063 -9.06546875 5.095625 -9.046875 3.87109375 C-9.02367187 2.95585937 -9.00046875 2.040625 -8.9765625 1.09765625 C-6.00296801 -0.389141 -3.31357071 -0.0134698 0 0 Z " fill="#996059" transform="translate(211.9765625,297.90234375)"/>
<path d="M0 0 C2.21875 -0.015625 2.21875 -0.015625 6.03125 0.296875 C6.03125 1.616875 6.03125 2.936875 6.03125 4.296875 C6.69125 4.296875 7.35125 4.296875 8.03125 4.296875 C11.03125 10.046875 11.03125 10.046875 11.03125 12.296875 C9.71125 11.966875 8.39125 11.636875 7.03125 11.296875 C6.37125 12.616875 5.71125 13.936875 5.03125 15.296875 C-1.0234375 15.4921875 -1.0234375 15.4921875 -2.96875 15.296875 C-3.62875 14.636875 -4.28875 13.976875 -4.96875 13.296875 C-5.95875 13.626875 -6.94875 13.956875 -7.96875 14.296875 C-3.75063741 0.56557231 -3.75063741 0.56557231 0 0 Z " fill="#7CA2BD" transform="translate(441.96875,365.703125)"/>
<path d="M0 0 C3.3 0 6.6 0 10 0 C10 5.94 10 11.88 10 18 C6.7 18 3.4 18 0 18 C0 12.06 0 6.12 0 0 Z " fill="#F0FAFC" transform="translate(305,240)"/>
<path d="M0 0 C0.61875 0.7734375 0.61875 0.7734375 1.25 1.5625 C1.8275 2.036875 2.405 2.51125 3 3 C5.16299211 2.77242269 5.16299211 2.77242269 7 2 C10 7.625 10 7.625 10 11 C8.02 11 6.04 11 4 11 C4 11.99 4 12.98 4 14 C2.35 14 0.7 14 -1 14 C-1.33 15.65 -1.66 17.3 -2 19 C-4.31 19 -6.62 19 -9 19 C-7.87312604 13.98028874 -6.29277575 10.71777185 -3.17578125 6.64453125 C-1.68937649 4.56553987 -0.80550239 2.41650716 0 0 Z " fill="#82A7C0" transform="translate(407,370)"/>
<path d="M0 0 C2.31 0 4.62 0 7 0 C7 7.59 7 15.18 7 23 C4.69 23 2.38 23 0 23 C0 15.41 0 7.82 0 0 Z " fill="#89ABC3" transform="translate(332,366)"/>
<path d="M0 0 C0 4.29 0 8.58 0 13 C-10.75 13.125 -10.75 13.125 -13 12 C-13.02688151 10.35425434 -13.04634123 8.70838587 -13.0625 7.0625 C-13.07410156 6.14597656 -13.08570313 5.22945313 -13.09765625 4.28515625 C-13 2 -13 2 -12 1 C-10.17205544 0.7657223 -8.33685296 0.58662595 -6.5 0.4375 C-4.99953125 0.31181641 -4.99953125 0.31181641 -3.46875 0.18359375 C-1 0 -1 0 0 0 Z " fill="#6A9CC3" transform="translate(316,260)"/>
<path d="M0 0 C0.66 0 1.32 0 2 0 C2.81756238 2.06049855 3.62884734 4.12348853 4.4375 6.1875 C4.88996094 7.33605469 5.34242188 8.48460937 5.80859375 9.66796875 C7 13 7 13 8 18 C3.38 18 -1.24 18 -6 18 C-5.42912225 11.29218641 -2.98548202 5.97096403 0 0 Z " fill="#F0E1DD" transform="translate(444,304)"/>
<path d="M0 0 C3.42054006 1.14018002 4.2426201 1.92458518 6 5 C5.6875 7.25 5.6875 7.25 5 9 C5.66 9 6.32 9 7 9 C7 12.63 7 16.26 7 20 C5.68 19.67 4.36 19.34 3 19 C3.99 20.32 4.98 21.64 6 23 C5 25 4 27 3 29 C2.01 29 1.02 29 0 29 C0 19.43 0 9.86 0 0 Z " fill="#98B7CA" transform="translate(261,277)"/>
<path d="M0 0 C5.28 0 10.56 0 16 0 C16 20.79 16 41.58 16 63 C10.39 63 4.78 63 -1 63 C-1.33 52.77 -1.66 42.54 -2 32 C-1.34 32 -0.68 32 0 32 C1.04518445 41.68662016 1.10371911 51.27345227 1 61 C7.93 61.495 7.93 61.495 15 62 C15 41.87 15 21.74 15 1 C10.05 1.33 5.1 1.66 0 2 C0 1.34 0 0.68 0 0 Z " fill="#7D433D" transform="translate(388,284)"/>
<path d="M0 0 C3.03408471 1.95624203 4.23210292 3.58594532 5.79296875 6.80078125 C3.48296875 6.80078125 1.17296875 6.80078125 -1.20703125 6.80078125 C-1.35140625 6.01703125 -1.49578125 5.23328125 -1.64453125 4.42578125 C-2.89151864 1.71480353 -2.89151864 1.71480353 -4.95703125 1.12890625 C-10.90154435 -0.10245718 -16.70784685 -0.61074784 -22.76953125 -0.82421875 C-24.13948242 -0.88222656 -24.13948242 -0.88222656 -25.53710938 -0.94140625 C-27.76023049 -1.03452127 -29.98336738 -1.12034041 -32.20703125 -1.19921875 C-32.53703125 -0.53921875 -32.86703125 0.12078125 -33.20703125 0.80078125 C-34.86982452 1.80720875 -36.53686609 2.80663532 -38.20703125 3.80078125 C-38.72265625 4.33703125 -39.23828125 4.87328125 -39.76953125 5.42578125 C-41.52159294 7.10166634 -42.85789753 7.34611021 -45.20703125 7.80078125 C-46.19703125 8.29578125 -46.19703125 8.29578125 -47.20703125 8.80078125 C-46.45703125 6.86328125 -46.45703125 6.86328125 -45.20703125 4.80078125 C-43.08203125 4.05078125 -43.08203125 4.05078125 -41.20703125 3.80078125 C-41.20703125 3.14078125 -41.20703125 2.48078125 -41.20703125 1.80078125 C-39.43705651 0.98641257 -37.66601973 0.17435185 -35.89453125 -0.63671875 C-34.90839844 -1.08917969 -33.92226562 -1.54164063 -32.90625 -2.0078125 C-21.8953228 -6.86791785 -10.58162575 -4.71241561 0 0 Z " fill="#722821" transform="translate(163.20703125,287.19921875)"/>
<path d="M0 0 C3.58668808 2.69001606 4.74485968 3.78677718 6.75 7.5 C7.17796875 8.2734375 7.6059375 9.046875 8.046875 9.84375 C9 12 9 12 9 15 C7.35 15.66 5.7 16.32 4 17 C4 15.35 4 13.7 4 12 C3.05878169 17.29435298 3.03287544 22.17532123 3.35546875 27.546875 C3 30 3 30 0.98828125 31.828125 C0.33214844 32.21484375 -0.32398438 32.6015625 -1 33 C-1.33 32.67 -1.66 32.34 -2 32 C-4.52596259 31.76346477 -7.03107207 31.57826308 -9.5625 31.4375 C-10.62887695 31.37272461 -10.62887695 31.37272461 -11.71679688 31.30664062 C-13.47761912 31.20028223 -15.2387832 31.09961154 -17 31 C-17 30.67 -17 30.34 -17 30 C-11.39 30 -5.78 30 0 30 C0 20.1 0 10.2 0 0 Z " fill="#EFD0CC" transform="translate(348,317)"/>
<path d="M0 0 C4.29 0 8.58 0 13 0 C13 0.33 13 0.66 13 1 C9.37 1 5.74 1 2 1 C2 20.14 2 39.28 2 59 C5.63 59 9.26 59 13 59 C13.495 50.09 13.495 50.09 14 41 C14.33 41 14.66 41 15 41 C15 47.93 15 54.86 15 62 C10.05 62 5.1 62 0 62 C0 41.54 0 21.08 0 0 Z " fill="#5C140E" transform="translate(332,285)"/>
<path d="M0 0 C3.96 0 7.92 0 12 0 C12 0.66 12 1.32 12 2 C11.01 2.66 10.02 3.32 9 4 C9.33 4.66 9.66 5.32 10 6 C14.62 6 19.24 6 24 6 C22.68 4.68 21.36 3.36 20 2 C22.49092811 0.75453595 23.41080733 1.2232422 26 2 C26 2.66 26 3.32 26 4 C28.97 4.66 31.94 5.32 35 6 C31 7 31 7 28 6 C28 6.66 28 7.32 28 8 C21.07 8 14.14 8 7 8 C7 7.34 7 6.68 7 6 C4.69 6.33 2.38 6.66 0 7 C0 4.69 0 2.38 0 0 Z " fill="#96B7CB" transform="translate(270,230)"/>
<path d="M0 0 C26.73 0 53.46 0 81 0 C81 0.33 81 0.66 81 1 C69.78 1 58.56 1 47 1 C47 1.66 47 2.32 47 3 C45.35 3.33 43.7 3.66 42 4 C42.33 3.01 42.66 2.02 43 1 C33.76 1 24.52 1 15 1 C14.67 1.99 14.34 2.98 14 4 C11 6 11 6 8.8125 5.625 C8.214375 5.41875 7.61625 5.2125 7 5 C8.32 4.34 9.64 3.68 11 3 C11 2.34 11 1.68 11 1 C7.37 1 3.74 1 0 1 C0 0.67 0 0.34 0 0 Z " fill="#7896AB" transform="translate(271,229)"/>
<path d="M0 0 C1.98 0 3.96 0 6 0 C5.01 0.33 4.02 0.66 3 1 C3 2.98 3 4.96 3 7 C5.58445773 7.1081866 8.16437352 7.18737237 10.75 7.25 C11.84441406 7.30027344 11.84441406 7.30027344 12.9609375 7.3515625 C16.67144375 7.41902625 18.57156961 7.34327652 21.515625 4.984375 C22.00546875 4.32953125 22.4953125 3.6746875 23 3 C23.99 3.33 24.98 3.66 26 4 C25.67 4.33 25.34 4.66 25 5 C26.04800781 5 27.09601563 5 28.17578125 5 C33.1171875 5 38.05859375 5 43 5 C43 5.66 43 6.32 43 7 C42.09636719 7.06058594 41.19273437 7.12117187 40.26171875 7.18359375 C39.08222656 7.26738281 37.90273437 7.35117188 36.6875 7.4375 C34.92986328 7.55931641 34.92986328 7.55931641 33.13671875 7.68359375 C29.97409042 7.8867371 29.97409042 7.8867371 27 9 C24.93501108 9.08315752 22.8674211 9.10735878 20.80078125 9.09765625 C19.59228516 9.09443359 18.38378906 9.09121094 17.13867188 9.08789062 C15.2447168 9.07532227 15.2447168 9.07532227 13.3125 9.0625 C11.40114258 9.05573242 11.40114258 9.05573242 9.45117188 9.04882812 C6.30073436 9.03702873 3.15039051 9.02056597 0 9 C0 6.03 0 3.06 0 0 Z " fill="#82A3B9" transform="translate(192,231)"/>
<path d="M0 0 C4.62 0 9.24 0 14 0 C14 0.33 14 0.66 14 1 C9.71 1 5.42 1 1 1 C1 20.47 1 39.94 1 60 C2.98 59.505 2.98 59.505 5 59 C7.796875 59.33984375 7.796875 59.33984375 10.75 59.9375 C11.73484375 60.13214844 12.7196875 60.32679688 13.734375 60.52734375 C14.85585938 60.76130859 14.85585938 60.76130859 16 61 C16 61.33 16 61.66 16 62 C10.72 62 5.44 62 0 62 C0 41.54 0 21.08 0 0 Z " fill="#580C04" transform="translate(302,285)"/>
<path d="M0 0 C2 2 2 2 2.13525391 3.87939453 C2.08288574 4.62302246 2.03051758 5.36665039 1.9765625 6.1328125 C1.925 6.93847656 1.8734375 7.74414062 1.8203125 8.57421875 C1.75585938 9.41597656 1.69140625 10.25773437 1.625 11.125 C1.56828125 11.97449219 1.5115625 12.82398438 1.453125 13.69921875 C1.31149023 15.8001345 1.15695674 17.90017334 1 20 C-1.33333333 17.66666667 -3.66666667 15.33333333 -6 13 C-6.33 13.99 -6.66 14.98 -7 16 C-7 12.7 -7 9.4 -7 6 C-5.68 6 -4.36 6 -3 6 C-3 5.01 -3 4.02 -3 3 C-1.5 1.3125 -1.5 1.3125 0 0 Z " fill="#84A6B9" transform="translate(267,264)"/>
<path d="M0 0 C0.33 0 0.66 0 1 0 C1.33 6.6 1.66 13.2 2 20 C-0.70183055 21.35091528 -3.11808206 21.33858058 -6.125 21.5625 C-8.06375 21.706875 -10.0025 21.85125 -12 22 C-12.33 26.29 -12.66 30.58 -13 35 C-7.39 35 -1.78 35 4 35 C4 35.33 4 35.66 4 36 C-1.94 36 -7.88 36 -14 36 C-14 30.06 -14 24.12 -14 18 C-9.38 18 -4.76 18 0 18 C0 12.06 0 6.12 0 0 Z " fill="#9AB8CD" transform="translate(315,240)"/>
<path d="M0 0 C1.43859375 -0.02126953 1.43859375 -0.02126953 2.90625 -0.04296875 C5.5 0.1875 5.5 0.1875 8.5 2.1875 C8.17 3.1775 7.84 4.1675 7.5 5.1875 C3.54 5.1875 -0.42 5.1875 -4.5 5.1875 C-4.83 6.8375 -5.16 8.4875 -5.5 10.1875 C-6.16 9.8575 -6.82 9.5275 -7.5 9.1875 C-7.17 7.2075 -6.84 5.2275 -6.5 3.1875 C-7.16 3.1875 -7.82 3.1875 -8.5 3.1875 C-8.83 5.8275 -9.16 8.4675 -9.5 11.1875 C-10.16 10.8575 -10.82 10.5275 -11.5 10.1875 C-11.86627907 4.69331395 -11.86627907 4.69331395 -10.1875 2.375 C-6.911017 0.06932678 -3.8778829 0.02606104 0 0 Z " fill="#89AABF" transform="translate(386.5,365.8125)"/>
<path d="M0 0 C7.92 0 15.84 0 24 0 C24 1.32 24 2.64 24 4 C21.03 4 18.06 4 15 4 C15 3.34 15 2.68 15 2 C13.68 2 12.36 2 11 2 C11 2.66 11 3.32 11 4 C7.37 4 3.74 4 0 4 C0 2.68 0 1.36 0 0 Z " fill="#81A0B4" transform="translate(457,366)"/>
<path d="M0 0 C4 2 4 2 5.875 3.25 C9.01409174 4.35791473 11.01096831 3.22278569 14 2 C14.33 2.66 14.66 3.32 15 4 C12.59016393 8.70491803 12.59016393 8.70491803 10 10 C9.27306096 11.97888961 8.60183749 13.97954558 8 16 C6.09610151 13.14415227 5.30537823 11.0688238 4.375 7.8125 C4.11460937 6.91144531 3.85421875 6.01039063 3.5859375 5.08203125 C3.29589844 4.05142578 3.29589844 4.05142578 3 3 C2.34 3 1.68 3 1 3 C0.67 4.65 0.34 6.3 0 8 C-0.33 7.01 -0.66 6.02 -1 5 C-1.66 4.67 -2.32 4.34 -3 4 C-2.34 4 -1.68 4 -1 4 C-0.67 2.68 -0.34 1.36 0 0 Z " fill="#72150E" transform="translate(443,301)"/>
<path d="M0 0 C0.66 0 1.32 0 2 0 C2.33 3.96 2.66 7.92 3 12 C2.34 12 1.68 12 1 12 C1 12.99 1 13.98 1 15 C-0.66611905 15.042721 -2.33382885 15.04063832 -4 15 C-5 14 -5 14 -5.01953125 11.78515625 C-4.95121094 10.88667969 -4.88289063 9.98820313 -4.8125 9.0625 C-4.75707031 8.16660156 -4.70164062 7.27070313 -4.64453125 6.34765625 C-4 4 -4 4 -1.94921875 2.68359375 C-0.98435547 2.34521484 -0.98435547 2.34521484 0 2 C0 1.34 0 0.68 0 0 Z " fill="#A4C5D3" transform="translate(266,214)"/>
<path d="M0 0 C0.66 0 1.32 0 2 0 C2 0.66 2 1.32 2 2 C2.61488281 2.06058594 3.22976563 2.12117188 3.86328125 2.18359375 C4.67152344 2.26738281 5.47976563 2.35117187 6.3125 2.4375 C7.11300781 2.51871094 7.91351563 2.59992188 8.73828125 2.68359375 C11 3 11 3 14 4 C14 4.99 14 5.98 14 7 C10.26025568 8.86987216 5.53209172 8.30641834 1.5 7.5 C1.005 7.335 0.51 7.17 0 7 C0 8.32 0 9.64 0 11 C-0.66 11 -1.32 11 -2 11 C-2.19622241 6.78121808 -1.80230168 3.82989106 0 0 Z " fill="#E4F3F7" transform="translate(376,377)"/>
<path d="M0 0 C6.6 0 13.2 0 20 0 C20 0.66 20 1.32 20 2 C16.0267181 4.40460957 13.02909209 5.98255776 8.3125 6.0625 C5 5 5 5 0 0 Z " fill="#DEEFF7" transform="translate(230,230)"/>
<path d="M0 0 C6.27 0 12.54 0 19 0 C19 0.66 19 1.32 19 2 C17.75823305 2.70226141 16.50614401 3.38629109 15.25 4.0625 C14.55390625 4.44535156 13.8578125 4.82820312 13.140625 5.22265625 C8.62369892 6.86292685 4.13824458 3.83037741 0 2 C0 1.34 0 0.68 0 0 Z " fill="#F0FDFD" transform="translate(325,230)"/>
<path d="M0 0 C1.5625 2.8125 1.5625 2.8125 3 6 C2.67 6.99 2.34 7.98 2 9 C1.6596875 8.19175781 1.319375 7.38351562 0.96875 6.55078125 C-0.82844032 3.65014915 -0.82844032 3.65014915 -4.40625 3.29296875 C-5.76992671 3.23206343 -7.13500636 3.19827043 -8.5 3.1875 C-9.56661865 3.15414551 -9.56661865 3.15414551 -10.65478516 3.12011719 C-12.09152581 3.07929885 -13.52862087 3.04940541 -14.96582031 3.03076172 C-16.78792346 3.00320711 -18.60917113 2.92852201 -20.4296875 2.84765625 C-24.23040246 2.67478941 -24.23040246 2.67478941 -28 3 C-28.66 3.99 -29.32 4.98 -30 6 C-29.67 4.35 -29.34 2.7 -29 1 C-9.65957447 -0.19148936 -9.65957447 -0.19148936 0 0 Z " fill="#62130D" transform="translate(459,332)"/>
<path d="M0 0 C2 0 2 0 4.60546875 2.3828125 C7.95850287 6.57195024 7.56456655 10.72508658 7.3125 15.875 C7.27866211 17.19371094 7.27866211 17.19371094 7.24414062 18.5390625 C7.18559748 20.69345007 7.09592783 22.8469531 7 25 C6.67 25 6.34 25 6 25 C5.67 19.39 5.34 13.78 5 8 C2.69 9.32 0.38 10.64 -2 12 C-2 8.7 -2 5.4 -2 2 C-1.34 1.67 -0.68 1.34 0 1 C0 0.67 0 0.34 0 0 Z " fill="#9CB5C5" transform="translate(264,203)"/>
<path d="M0 0 C3.95181927 0.23639465 7.90267265 0.48487691 11.85302734 0.74462891 C13.19721743 0.83129849 14.54162563 0.9146512 15.88623047 0.99462891 C17.81792334 1.1101028 19.7488323 1.23846382 21.6796875 1.3671875 C23.42354736 1.47716064 23.42354736 1.47716064 25.20263672 1.58935547 C28 2 28 2 30 4 C23.79464591 7.10267704 12.57869785 5.49865422 6.125 3.625 C3.31079682 2.68057249 2.13111996 2.13111996 0 0 Z " fill="#6D1E17" transform="translate(124,343)"/>
<path d="M0 0 C2.73961108 2.39815231 3.99417949 4.80299673 5.4375 8.125 C5.86417969 9.09824219 6.29085938 10.07148438 6.73046875 11.07421875 C7.35888672 12.52248047 7.35888672 12.52248047 8 14 C9.0668589 16.34283632 10.13490039 18.68512995 11.203125 21.02734375 C11.99975696 22.99939836 12.53618878 24.92676384 13 27 C12.34 27 11.68 27 11 27 C11 26.34 11 25.68 11 25 C10.01 25 9.02 25 8 25 C6.20724134 21.88089144 5.65709282 19.32317572 5.375 15.75 C5.30023438 14.85796875 5.22546875 13.9659375 5.1484375 13.046875 C5.09945313 12.37140625 5.05046875 11.6959375 5 11 C4.34 11 3.68 11 3 11 C2.34 9.02 1.68 7.04 1 5 C0.67 5 0.34 5 0 5 C0 3.35 0 1.7 0 0 Z " fill="#7A3C35" transform="translate(461,303)"/>
<path d="M0 0 C2 2 2 2 2 7 C-3.94 7 -9.88 7 -16 7 C-15.67 5.02 -15.34 3.04 -15 1 C-14.01 2.32 -13.02 3.64 -12 5 C-12 4.34 -12 3.68 -12 3 C-11.30132812 3.03480469 -10.60265625 3.06960938 -9.8828125 3.10546875 C-8.97273438 3.13253906 -8.06265625 3.15960938 -7.125 3.1875 C-6.22007812 3.22230469 -5.31515625 3.25710938 -4.3828125 3.29296875 C-3.59648437 3.19628906 -2.81015625 3.09960938 -2 3 C-1.34 2.01 -0.68 1.02 0 0 Z " fill="#67120A" transform="translate(426,340)"/>
<path d="M0 0 C0.33 0 0.66 0 1 0 C1 2.97 1 5.94 1 9 C0.34 9 -0.32 9 -1 9 C-1.33 10.65 -1.66 12.3 -2 14 C-4.31 14 -6.62 14 -9 14 C-7.63631377 7.42951179 -7.63631377 7.42951179 -4.5 5.3125 C-3.675 4.879375 -2.85 4.44625 -2 4 C-0.67206394 1.93299345 -0.67206394 1.93299345 0 0 Z " fill="#709DBD" transform="translate(407,375)"/>
<path d="M0 0 C3.02015057 1.00671686 4.09316578 1.548356 6 4 C6 5.32 6 6.64 6 8 C6.66 8.33 7.32 8.66 8 9 C8 10.32 8 11.64 8 13 C6.35 13 4.7 13 3 13 C3 12.34 3 11.68 3 11 C2.01 11 1.02 11 0 11 C0 7.37 0 3.74 0 0 Z " fill="#A9C8D8" transform="translate(261,332)"/>
<path d="M0 0 C4.22791457 3.38233166 6.27012113 5.55130851 9 10 C7.60804085 12.7839183 5.84424221 12.97898997 3 14 C3 12.35 3 10.7 3 9 C2.67 11.31 2.34 13.62 2 16 C1.34 16 0.68 16 0 16 C0 10.72 0 5.44 0 0 Z " fill="#F8ECEA" transform="translate(349,320)"/>
<path d="M0 0 C0.33 0 0.66 0 1 0 C1 6.93 1 13.86 1 21 C-4.61 21 -10.22 21 -16 21 C-16 17.37 -16 13.74 -16 10 C-15.67 10 -15.34 10 -15 10 C-15 12.64 -15 15.28 -15 18 C-10.05 18.33 -5.1 18.66 0 19 C0 12.73 0 6.46 0 0 Z " fill="#5F1E18" transform="translate(204,326)"/>
<path d="M0 0 C1.65 0 3.3 0 5 0 C5.33 1.32 5.66 2.64 6 4 C5.34 4 4.68 4 4 4 C4 3.34 4 2.68 4 2 C3.01 2.495 3.01 2.495 2 3 C1.59270772 5.32156597 1.25561323 7.6568787 1 10 C1.66 10 2.32 10 3 10 C4.20272819 12.40545638 4.10071472 13.94996953 4.0625 16.625 C4.05347656 17.44226563 4.04445313 18.25953125 4.03515625 19.1015625 C4.02355469 19.72804688 4.01195312 20.35453125 4 21 C2.68 21 1.36 21 0 21 C0 14.07 0 7.14 0 0 Z " fill="#719BB8" transform="translate(345,367)"/>
<path d="M0 0 C0.33 0.66 0.66 1.32 1 2 C-5.56699525 2.84843174 -11.94550593 3.12561146 -18.5625 3.0625 C-19.47580078 3.05798828 -20.38910156 3.05347656 -21.33007812 3.04882812 C-23.55345738 3.0371874 -25.77669121 3.02083851 -28 3 C-28 4.65 -28 6.3 -28 8 C-28.99 8.495 -28.99 8.495 -30 9 C-30 6.36 -30 3.72 -30 1 C-15.15 0.505 -15.15 0.505 0 0 Z " fill="#FEEFEB" transform="translate(236,298)"/>
<path d="M0 0 C0.66 0 1.32 0 2 0 C2 9.9 2 19.8 2 30 C1.67 30 1.34 30 1 30 C0.67 22.41 0.34 14.82 0 7 C-0.33 7.99 -0.66 8.98 -1 10 C-3.5625 11.6875 -3.5625 11.6875 -6 13 C-4.58707905 8.1725201 -2.57025846 4.2837641 0 0 Z " fill="#F9DCD7" transform="translate(385,317)"/>
<path d="M0 0 C2.97 0 5.94 0 9 0 C7.02 0.99 7.02 0.99 5 2 C4.67 2.99 4.34 3.98 4 5 C3.34 5 2.68 5 2 5 C2.01160156 5.91523438 2.02320313 6.83046875 2.03515625 7.7734375 C2.04417969 8.96195312 2.05320312 10.15046875 2.0625 11.375 C2.07410156 12.55835938 2.08570313 13.74171875 2.09765625 14.9609375 C2 18 2 18 1 20 C-1.31 20 -3.62 20 -6 20 C-6 19.67 -6 19.34 -6 19 C-4.02 19 -2.04 19 0 19 C0 12.73 0 6.46 0 0 Z " fill="#E5F4FB" transform="translate(472,370)"/>
<path d="M0 0 C0.66 0 1.32 0 2 0 C2 3.96 2 7.92 2 12 C-6.91 12 -15.82 12 -25 12 C-25 11.34 -25 10.68 -25 10 C-23.02966797 10.01740234 -23.02966797 10.01740234 -21.01953125 10.03515625 C-19.28385559 10.04453828 -17.54817839 10.05363804 -15.8125 10.0625 C-14.51602539 10.07506836 -14.51602539 10.07506836 -13.19335938 10.08789062 C-8.99713231 10.10396812 -5.09063114 10.07559038 -1 9 C-0.67 6.03 -0.34 3.06 0 0 Z " fill="#61130C" transform="translate(230,313)"/>
<path d="M0 0 C2.46270288 3.69405432 2.22985417 5.63277072 2 10 C1.5 12.4375 1.5 12.4375 1 14 C1.66 14 2.32 14 3 14 C2.67 19.61 2.34 25.22 2 31 C1.34 31 0.68 31 0 31 C0 20.77 0 10.54 0 0 Z " fill="#7F98AA" transform="translate(259,312)"/>
<path d="M0 0 C0.495 0.33 0.99 0.66 1.5 1 C-1.90937557 2.70468779 -6.12924991 2.20589392 -9.9140625 2.16601562 C-12.18832402 2.1812528 -12.18832402 2.1812528 -15.5 3 C-17.88211366 5.93638692 -17.88211366 5.93638692 -19.5 9 C-20.16 9 -20.82 9 -21.5 9 C-21.17 7.68 -20.84 6.36 -20.5 5 C-19.84 5 -19.18 5 -18.5 5 C-18.29375 4.38125 -18.0875 3.7625 -17.875 3.125 C-14.40626361 -2.23577442 -5.4096123 -2.16384492 0 0 Z " fill="#EBD2CB" transform="translate(150.5,299)"/>
<path d="M0 0 C0.74958984 0.00451172 1.49917969 0.00902344 2.27148438 0.01367188 C4.11852383 0.02543646 5.96552213 0.04337135 7.8125 0.0625 C7.8125 0.3925 7.8125 0.7225 7.8125 1.0625 C6.79929688 1.12308594 5.78609375 1.18367188 4.7421875 1.24609375 C3.39061486 1.33056704 2.03905291 1.41521157 0.6875 1.5 C-0.31023437 1.55897461 -0.31023437 1.55897461 -1.328125 1.61914062 C-5.33281002 1.87434114 -9.27160522 2.16386761 -13.1875 3.0625 C-13.5175 3.7225 -13.8475 4.3825 -14.1875 5.0625 C-15.85029327 6.0689275 -17.51733484 7.06835407 -19.1875 8.0625 C-19.703125 8.59875 -20.21875 9.135 -20.75 9.6875 C-22.50206169 11.36338509 -23.83836628 11.60782896 -26.1875 12.0625 C-27.1775 12.5575 -27.1775 12.5575 -28.1875 13.0625 C-27.4375 11.125 -27.4375 11.125 -26.1875 9.0625 C-24.0625 8.3125 -24.0625 8.3125 -22.1875 8.0625 C-22.1875 7.4025 -22.1875 6.7425 -22.1875 6.0625 C-20.41752526 5.24813132 -18.64648848 4.4360706 -16.875 3.625 C-15.88886719 3.17253906 -14.90273437 2.72007812 -13.88671875 2.25390625 C-9.11419942 0.14736733 -5.13643511 -0.0583176 0 0 Z " fill="#8C544E" transform="translate(144.1875,282.9375)"/>
<path d="M0 0 C5.94 0 11.88 0 18 0 C16.38017456 3.23965088 14.35967583 3.80011577 11 5 C7.8898387 4.6707484 4.98395 3.921709 2 3 C2 2.34 2 1.68 2 1 C1.34 0.67 0.68 0.34 0 0 Z " fill="#EDFBFD" transform="translate(294,231)"/>
<path d="M0 0 C0.99 0.680625 0.99 0.680625 2 1.375 C2.9075 1.890625 3.815 2.40625 4.75 2.9375 C5.86375 3.6490625 5.86375 3.6490625 7 4.375 C7 4.705 7 5.035 7 5.375 C1.39 5.375 -4.22 5.375 -10 5.375 C-3.52380952 -1.10119048 -3.52380952 -1.10119048 0 0 Z " fill="#DEF3F9" transform="translate(226,231.625)"/>
<path d="M0 0 C5.94 0 11.88 0 18 0 C16.38017456 3.23965088 14.35967583 3.80011577 11 5 C7.8898387 4.6707484 4.98395 3.921709 2 3 C2 2.34 2 1.68 2 1 C1.34 0.67 0.68 0.34 0 0 Z " fill="#DFF3FA" transform="translate(200,231)"/>
<path d="M0 0 C0.99 0.99 1.98 1.98 3 3 C-2.61 3 -8.22 3 -14 3 C-8.69544658 -2.30455342 -6.88647397 -2.93041445 0 0 Z " fill="#E2F5FB" transform="translate(293,234)"/>
<path d="M0 0 C5.07612318 -0.61528766 7.82982006 1.38341651 12 4 C12 4.33 12 4.66 12 5 C6.39 5 0.78 5 -5 5 C-4 3 -4 3 -1 2 C-0.67 1.34 -0.34 0.68 0 0 Z " fill="#E3F6FC" transform="translate(316,232)"/>
<path d="M0 0 C0.99 0.66 1.98 1.32 3 2 C0.83199193 6.44441654 -1.52055587 10.72509633 -4 15 C-4.33 14.01 -4.66 13.02 -5 12 C-5.33 12.99 -5.66 13.98 -6 15 C-6.66 15 -7.32 15 -8 15 C-6.62712658 11.30123909 -4.93644547 8.0485524 -2.875 4.6875 C-2.33617187 3.80449219 -1.79734375 2.92148437 -1.2421875 2.01171875 C-0.83226562 1.34785156 -0.42234375 0.68398438 0 0 Z " fill="#762A25" transform="translate(387,287)"/>
<path d="M0 0 C2 2 2 2 3 7 C-3.27 7 -9.54 7 -16 7 C-16 5.35 -16 3.7 -16 2 C-15.03900391 2.30744141 -15.03900391 2.30744141 -14.05859375 2.62109375 C-9.02712149 4.18827364 -4.24011997 5.43042174 1 6 C0.67 4.02 0.34 2.04 0 0 Z " fill="#63241E" transform="translate(478,340)"/>
<path d="M0 0 C0.33 0 0.66 0 1 0 C1 6.27 1 12.54 1 19 C0.34 18.01 -0.32 17.02 -1 16 C-1.66 16 -2.32 16 -3 16 C-3 11.71 -3 7.42 -3 3 C-2.34 3 -1.68 3 -1 3 C-0.67 2.01 -0.34 1.02 0 0 Z " fill="#7CA4C5" transform="translate(471,370)"/>
<path d="M0 0 C1.79244141 0.01740234 1.79244141 0.01740234 3.62109375 0.03515625 C5.41740234 0.04869141 5.41740234 0.04869141 7.25 0.0625 C8.17683594 0.07410156 9.10367187 0.08570313 10.05859375 0.09765625 C10.05859375 0.75765625 10.05859375 1.41765625 10.05859375 2.09765625 C7.74859375 2.09765625 5.43859375 2.09765625 3.05859375 2.09765625 C3.05859375 3.41765625 3.05859375 4.73765625 3.05859375 6.09765625 C0.08859375 5.60265625 0.08859375 5.60265625 -2.94140625 5.09765625 C-3.50390625 3.16015625 -3.50390625 3.16015625 -3.94140625 1.09765625 C-2.94140625 0.09765625 -2.94140625 0.09765625 0 0 Z " fill="#D4E8F1" transform="translate(384.94140625,369.90234375)"/>
<path d="M0 0 C3.465 1.98 3.465 1.98 7 4 C7 6.64 7 9.28 7 12 C5 11 5 11 4.3125 9.1875 C2.29821034 5.83035056 -0.55423331 4.78669384 -4 3 C-2.68 2.01 -1.36 1.02 0 0 Z " fill="#772721" transform="translate(152,296)"/>
<path d="M0 0 C4 2 4 2 6 4 C5.625 6.125 5.625 6.125 5 8 C4.34 8 3.68 8 3 8 C3 8.99 3 9.98 3 11 C2.01 11 1.02 11 0 11 C0 7.37 0 3.74 0 0 Z " fill="#CEE4EF" transform="translate(261,259)"/>
<path d="M0 0 C0.33 0 0.66 0 1 0 C1.33 4.62 1.66 9.24 2 14 C2.66 14 3.32 14 4 14 C5.32 16.97 6.64 19.94 8 23 C2.78892423 20.39446212 1.12198046 17.321927 -1 12 C-1.64134998 7.93099069 -1.30711618 3.92134855 0 0 Z " fill="#F0D1CE" transform="translate(128,308)"/>
<path d="M0 0 C0.66 0 1.32 0 2 0 C2 0.66 2 1.32 2 2 C3.32 2.33 4.64 2.66 6 3 C6.144375 3.598125 6.28875 4.19625 6.4375 4.8125 C6.8872439 6.56150404 7.42892341 8.28677023 8 10 C8.99 10.33 9.98 10.66 11 11 C10.67 12.32 10.34 13.64 10 15 C9.34 15 8.68 15 8 15 C6.5625 12.98828125 6.5625 12.98828125 5 10.3125 C4.484375 9.44238281 3.96875 8.57226562 3.4375 7.67578125 C2.08785157 5.16352805 0.99988443 2.66796085 0 0 Z " fill="#F6E2DE" transform="translate(359,304)"/>
<path d="M0 0 C1.32 0.66 2.64 1.32 4 2 C4 2.66 4 3.32 4 4 C3.34 4 2.68 4 2 4 C2.33 4.66 2.66 5.32 3 6 C3.99 6.33 4.98 6.66 6 7 C6 8.98 6 10.96 6 13 C5.01 12.34 4.02 11.68 3 11 C3 10.34 3 9.68 3 9 C2.38125 8.731875 1.7625 8.46375 1.125 8.1875 C-1 7 -1 7 -3 4 C-2.34 4 -1.68 4 -1 4 C-0.67 2.68 -0.34 1.36 0 0 Z " fill="#82A8C1" transform="translate(357,375)"/>
<path d="M0 0 C0.37125 0.495 0.7425 0.99 1.125 1.5 C3.74694393 3.59755514 5.73842472 3.21743835 9 3 C8.67 3.99 8.34 4.98 8 6 C9.32 6.66 10.64 7.32 12 8 C12 8.66 12 9.32 12 10 C8.07316532 9.72603479 6.27231386 9.22390251 3.1875 6.6875 C1.21504445 4.26419747 0.33781219 3.04030971 0 0 Z " fill="#6D1A13" transform="translate(116,333)"/>
<path d="M0 0 C0.66 0 1.32 0 2 0 C5 5.75 5 5.75 5 8 C2.36 8 -0.28 8 -3 8 C-1.125 1.125 -1.125 1.125 0 0 Z " fill="#DEEFF7" transform="translate(443,372)"/>
<path d="M0 0 C0.33 0.99 0.66 1.98 1 3 C1.66 2.34 2.32 1.68 3 1 C3.93065133 3.60582371 4.14917407 4.64198224 3.0625 7.25 C2.711875 7.8275 2.36125 8.405 2 9 C-0.64 9 -3.28 9 -6 9 C-5.566875 8.443125 -5.13375 7.88625 -4.6875 7.3125 C-2.96495233 4.95197171 -1.47166848 2.52286025 0 0 Z " fill="#82A4BF" transform="translate(433,380)"/>
<path d="M0 0 C1.13635768 3.53533499 1.13635768 3.53533499 0.4921875 5.73046875 C-0.38963903 9.79666888 0.48990027 13.90311487 0.94140625 18.00390625 C1 21 1 21 -1 24 C-2.61863273 20.76273455 -2.1845318 17.24043124 -2.1875 13.6875 C-2.19974609 12.92759766 -2.21199219 12.16769531 -2.22460938 11.38476562 C-2.23570015 7.12960614 -1.96104913 3.88334235 0 0 Z " fill="#7B4039" transform="translate(111,302)"/>
<path d="M0 0 C0.66 0 1.32 0 2 0 C3.76462683 3.08809695 4 4.23312136 4 8 C1.69 8 -0.62 8 -3 8 C-1.125 1.125 -1.125 1.125 0 0 Z " fill="#D6EBF4" transform="translate(412,372)"/>
<path d="M0 0 C0.56640625 1.89453125 0.56640625 1.89453125 1 4 C-0.55197871 6.46490736 -1.83093586 6.95169596 -4.625 7.75 C-8.85595028 8.06340372 -12.81331147 7.6047439 -17 7 C-17 6.67 -17 6.34 -17 6 C-16.35933594 5.98582031 -15.71867188 5.97164063 -15.05859375 5.95703125 C-8.46465756 5.59343119 -5.03699241 4.27049357 0 0 Z " fill="#732C24" transform="translate(156,327)"/>
<path d="M0 0 C2.79224073 -0.08071788 5.58216566 -0.14035408 8.375 -0.1875 C9.1690625 -0.21263672 9.963125 -0.23777344 10.78125 -0.26367188 C12.85586148 -0.29004405 14.93100865 -0.15486462 17 0 C17.66 0.99 18.32 1.98 19 3 C12.4 2.67 5.8 2.34 -1 2 C-0.67 1.34 -0.34 0.68 0 0 Z " fill="#671C16" transform="translate(137,284)"/>
<path d="M0 0 C1.98 0 3.96 0 6 0 C6 1.65 6 3.3 6 5 C2.37 5 -1.26 5 -5 5 C-5 4.34 -5 3.68 -5 3 C-4.360625 2.87625 -3.72125 2.7525 -3.0625 2.625 C-2.0415625 2.315625 -2.0415625 2.315625 -1 2 C-0.67 1.34 -0.34 0.68 0 0 Z " fill="#D0ECF7" transform="translate(253,232)"/>
<path d="M0 0 C0.66 0.33 1.32 0.66 2 1 C2 3.97 2 6.94 2 10 C2.99 9.34 3.98 8.68 5 8 C5 9.32 5 10.64 5 12 C4.01 12.66 3.02 13.32 2 14 C0.78715124 17.05429073 0.78715124 17.05429073 0 20 C-0.33 20 -0.66 20 -1 20 C-0.67 13.4 -0.34 6.8 0 0 Z " fill="#8EAABD" transform="translate(261,204)"/>
<path d="M0 0 C0.66 0 1.32 0 2 0 C0.53967505 5.31027254 -1.98320986 9.46330032 -5 14 C-5.66 13.01 -6.32 12.02 -7 11 C-6.06810009 7.89366697 -4.80806372 5.71209558 -3 3 C-2.01 3 -1.02 3 0 3 C0 2.01 0 1.02 0 0 Z " fill="#F7E8E2" transform="translate(384,288)"/>
<path d="M0 0 C1.98 0 3.96 0 6 0 C5.01 0.33 4.02 0.66 3 1 C3 2.98 3 4.96 3 7 C5.31 7 7.62 7 10 7 C10 7.33 10 7.66 10 8 C6.7 8.33 3.4 8.66 0 9 C0 6.03 0 3.06 0 0 Z " fill="#7399B2" transform="translate(192,231)"/>
<path d="M0 0 C1.00333983 2.00667967 1.45815006 3.83260024 2 6 C2.33 6.66 2.66 7.32 3 8 C2.67 8.66 2.34 9.32 2 10 C4.31 10 6.62 10 9 10 C9 10.33 9 10.66 9 11 C2.9453125 11.1953125 2.9453125 11.1953125 1 11 C0.34 10.34 -0.32 9.68 -1 9 C-1.99 9.33 -2.98 9.66 -4 10 C-3.52449439 8.51965236 -3.04448784 7.04074979 -2.5625 5.5625 C-2.29566406 4.73878906 -2.02882813 3.91507812 -1.75390625 3.06640625 C-1 1 -1 1 0 0 Z " fill="#85A9C2" transform="translate(438,370)"/>
<path d="M0 0 C4.16138263 -0.08159574 7.9472484 0.01751476 12 1 C11.67 1.99 11.34 2.98 11 4 C6.71 3.67 2.42 3.34 -2 3 C-1.34 2.67 -0.68 2.34 0 2 C0 1.34 0 0.68 0 0 Z " fill="#799BB4" transform="translate(383,367)"/>
<path d="M0 0 C0.33 0 0.66 0 1 0 C1 2.97 1 5.94 1 9 C2.32 8.67 3.64 8.34 5 8 C7.796875 8.33984375 7.796875 8.33984375 10.75 8.9375 C11.73484375 9.13214844 12.7196875 9.32679688 13.734375 9.52734375 C14.48203125 9.68332031 15.2296875 9.83929688 16 10 C16 10.33 16 10.66 16 11 C10.72 11 5.44 11 0 11 C0 7.37 0 3.74 0 0 Z " fill="#5A1610" transform="translate(302,336)"/>
<path d="M0 0 C0 3.3 0 6.6 0 10 C-4 8 -4 8 -4.9375 5.5625 C-5 3 -5 3 -3.6875 1.1875 C-2 0 -2 0 0 0 Z " fill="#DBF0F6" transform="translate(268,287)"/>
<path d="M0 0 C6.27 0 12.54 0 19 0 C19 0.66 19 1.32 19 2 C17.35 2.66 15.7 3.32 14 4 C14 3.01 14 2.02 14 1 C10.7 1 7.4 1 4 1 C4.33 1.99 4.66 2.98 5 4 C2.525 3.01 2.525 3.01 0 2 C0 1.34 0 0.68 0 0 Z " fill="#D4EAF5" transform="translate(325,230)"/>
<path d="M0 0 C0.66 0 1.32 0 2 0 C2 3.63 2 7.26 2 11 C-0.5625 8.75 -0.5625 8.75 -3 6 C-2.8125 3.6875 -2.8125 3.6875 -2 2 C-1.34 2 -0.68 2 0 2 C0 1.34 0 0.68 0 0 Z " fill="#DBF0F8" transform="translate(266,323)"/>
<path d="M0 0 C0.33 0 0.66 0 1 0 C1 3.96 1 7.92 1 12 C-0.65 10.68 -2.3 9.36 -4 8 C-3.67 6.35 -3.34 4.7 -3 3 C-2.34 3 -1.68 3 -1 3 C-0.67 2.01 -0.34 1.02 0 0 Z " fill="#CDE6F3" transform="translate(267,304)"/>
<path d="M0 0 C0.97582031 0.00902344 1.95164063 0.01804687 2.95703125 0.02734375 C3.69308594 0.03894531 4.42914063 0.05054688 5.1875 0.0625 C5.5175 0.7225 5.8475 1.3825 6.1875 2.0625 C5.21167969 2.19527344 4.23585937 2.32804687 3.23046875 2.46484375 C1.32201172 2.72974609 1.32201172 2.72974609 -0.625 3 C-2.52185547 3.26103516 -2.52185547 3.26103516 -4.45703125 3.52734375 C-7.79571703 3.96642455 -7.79571703 3.96642455 -10.8125 5.0625 C-10.8125 3.7425 -10.8125 2.4225 -10.8125 1.0625 C-7.13862505 0.20951624 -3.7677607 -0.04539471 0 0 Z " fill="#671912" transform="translate(143.8125,295.9375)"/>
<path d="M0 0 C0.33 0 0.66 0 1 0 C1 3.63 1 7.26 1 11 C-0.98 9.35 -2.96 7.7 -5 6 C-3.35830472 3.97945196 -1.69088222 1.97956942 0 0 Z " fill="#DCF1F8" transform="translate(267,250)"/>
<path d="M0 0 C1.98 0 3.96 0 6 0 C6 1.98 6 3.96 6 6 C4.02 6 2.04 6 0 6 C0 4.02 0 2.04 0 0 Z " fill="#E5F8FC" transform="translate(262,231)"/>
<path d="M0 0 C0.66 0 1.32 0 2 0 C2 3.3 2 6.6 2 10 C0.68 9.34 -0.64 8.68 -2 8 C-2.75 5.375 -2.75 5.375 -3 3 C-2.01 2.67 -1.02 2.34 0 2 C0 1.34 0 0.68 0 0 Z " fill="#DCF3F8" transform="translate(266,214)"/>
<path d="M0 0 C1.65 0 3.3 0 5 0 C5 0.66 5 1.32 5 2 C5.61875 2.12375 6.2375 2.2475 6.875 2.375 C9 3 9 3 11 5 C7.37 5 3.74 5 0 5 C0 3.35 0 1.7 0 0 Z " fill="#8BA8BC" transform="translate(259,343)"/>
<path d="M0 0 C2.20253948 3.30380922 2.48335581 5.10266273 2.875 9 C2.99617187 10.051875 3.11734375 11.10375 3.2421875 12.1875 C3 15 3 15 1.0078125 16.875 C0.34523437 17.24625 -0.31734375 17.6175 -1 18 C-1.02698422 15.56242587 -1.04683099 13.12515085 -1.0625 10.6875 C-1.07087891 9.99720703 -1.07925781 9.30691406 -1.08789062 8.59570312 C-1.10307906 5.4516975 -1.00193327 3.00579981 0 0 Z " fill="#71231B" transform="translate(160,305)"/>
<path d="M0 0 C0.66 0 1.32 0 2 0 C2.33 1.65 2.66 3.3 3 5 C4.32 4.67 5.64 4.34 7 4 C6.34 6.31 5.68 8.62 5 11 C2.38114512 8.63055987 0.58133449 6.16266898 -1 3 C-0.67 2.01 -0.34 1.02 0 0 Z " fill="#FAF1ED" transform="translate(353,291)"/>
<path d="M0 0 C0 3.63 0 7.26 0 11 C-0.66 10.67 -1.32 10.34 -2 10 C-2 9.34 -2 8.68 -2 8 C-2.99 7.67 -3.98 7.34 -5 7 C-4.53479806 4.30182875 -3.4249099 0 0 0 Z " fill="#DCF3F9" transform="translate(268,268)"/>
<path d="M0 0 C0.99 0.495 0.99 0.495 2 1 C1.67 6.28 1.34 11.56 1 17 C1.99 17.33 2.98 17.66 4 18 C4 18.99 4 19.98 4 21 C2.68 21 1.36 21 0 21 C0 14.07 0 7.14 0 0 Z " fill="#7297B0" transform="translate(333,367)"/>
<path d="M0 0 C1.98 0 3.96 0 6 0 C6 1.65 6 3.3 6 5 C6.66 5 7.32 5 8 5 C7.67 5.66 7.34 6.32 7 7 C4.69 6.01 2.38 5.02 0 4 C0 2.68 0 1.36 0 0 Z " fill="#E9F5FA" transform="translate(388,372)"/>
<path d="M0 0 C1.65 0.33 3.3 0.66 5 1 C5 2.65 5 4.3 5 6 C3.02 6 1.04 6 -1 6 C-0.67 4.02 -0.34 2.04 0 0 Z " fill="#8DA7B7" transform="translate(333,358)"/>
<path d="M0 0 C0.99 0 1.98 0 3 0 C3.67154933 1.28913487 4.33708859 2.58140204 5 3.875 C5.37125 4.59429687 5.7425 5.31359375 6.125 6.0546875 C7 8 7 8 7 10 C6.34 10 5.68 10 5 10 C5 9.34 5 8.68 5 8 C4.01 8 3.02 8 2 8 C0.23537317 4.91190305 0 3.76687864 0 0 Z " fill="#722823" transform="translate(467,320)"/>
<path d="M0 0 C0 5.28 0 10.56 0 16 C-2 14 -2 14 -2.1953125 11.6171875 C-2.17210937 10.71226562 -2.14890625 9.80734375 -2.125 8.875 C-2.10695313 7.96492187 -2.08890625 7.05484375 -2.0703125 6.1171875 C-2.04710937 5.41851562 -2.02390625 4.71984375 -2 4 C-2.66 4 -3.32 4 -4 4 C-4 3.34 -4 2.68 -4 2 C-1 0 -1 0 0 0 Z " fill="#7C99AC" transform="translate(270,210)"/>
<path d="M0 0 C0.66 0.66 1.32 1.32 2 2 C1.69096017 3.33917261 1.34976758 4.67088318 1 6 C0.74563572 11.2568617 1.01743269 15.04358171 3 20 C0.20116058 17.71259509 -0.90095565 16.45594556 -1.6796875 12.87109375 C-1.74414062 11.73800781 -1.80859375 10.60492188 -1.875 9.4375 C-1.95492187 8.30183594 -2.03484375 7.16617187 -2.1171875 5.99609375 C-2 3 -2 3 0 0 Z " fill="#722924" transform="translate(127,306)"/>
<path d="M0 0 C2.87155524 1.43577762 3.59823623 3.137243 5 6 C5.29296875 9.11328125 5.29296875 9.11328125 5.1875 12.3125 C5.16042969 13.38113281 5.13335937 14.44976562 5.10546875 15.55078125 C5.07066406 16.35902344 5.03585938 17.16726563 5 18 C4.67 18 4.34 18 4 18 C4 14.7 4 11.4 4 8 C3.01 8.33 2.02 8.66 1 9 C0 2.25 0 2.25 0 0 Z " fill="#F2DDD9" transform="translate(155,303)"/>
<path d="M0 0 C2.97 0 5.94 0 9 0 C9 0.66 9 1.32 9 2 C3.375 5 3.375 5 0 5 C0 3.35 0 1.7 0 0 Z " fill="#E0F4FB" transform="translate(271,231)"/>
<path d="M0 0 C0.66 0 1.32 0 2 0 C5 5.75 5 5.75 5 8 C4.38125 7.814375 3.7625 7.62875 3.125 7.4375 C0.95839822 6.76313824 0.95839822 6.76313824 -1 8 C-1.93065133 5.39417629 -2.14917407 4.35801776 -1.0625 1.75 C-0.711875 1.1725 -0.36125 0.595 0 0 Z " fill="#87AAC1" transform="translate(448,370)"/>
<path d="M0 0 C0.33 0 0.66 0 1 0 C0.979375 0.7425 0.95875 1.485 0.9375 2.25 C0.99328688 4.70462279 1.3069904 6.66109261 2 9 C0.125 10.0625 0.125 10.0625 -2 11 C-2.66 10.67 -3.32 10.34 -4 10 C-2.8905928 6.51329166 -1.73662334 3.22515763 0 0 Z " fill="#742720" transform="translate(421,318)"/>
<path d="M0 0 C1 2 1 2 0.29296875 4.2421875 C-0.07183594 5.11101562 -0.43664062 5.97984375 -0.8125 6.875 C-1.16957031 7.73867188 -1.52664063 8.60234375 -1.89453125 9.4921875 C-2.86758977 11.6996206 -3.89750962 13.85488298 -5 16 C-6.47290575 13.0541885 -5.52363681 11.15522464 -4.75 8 C-4.49734375 6.9275 -4.2446875 5.855 -3.984375 4.75 C-3 2 -3 2 0 0 Z " fill="#E7CBC7" transform="translate(420,318)"/>
<path d="M0 0 C0.99 0.33 1.98 0.66 3 1 C4.1875 3.5625 4.1875 3.5625 5 6 C3.625 7.5 3.625 7.5 2 9 C1.34 9 0.68 9 0 9 C0 6.03 0 3.06 0 0 Z " fill="#DDF1F6" transform="translate(262,296)"/>
<path d="M0 0 C0.66 0 1.32 0 2 0 C3.625 2 3.625 2 5 4 C3.63016497 7.16115776 3.0109362 7.9927092 0 10 C0 6.7 0 3.4 0 0 Z " fill="#DFF2F8" transform="translate(262,278)"/>
<path d="M0 0 C4 2 4 2 4.9375 3.9375 C5 6 5 6 3.6875 7.75 C2 9 2 9 0 9 C0 6.03 0 3.06 0 0 Z " fill="#E0F3F9" transform="translate(262,242)"/>
<path d="M0 0 C2.31 0 4.62 0 7 0 C7 0.66 7 1.32 7 2 C5.68 2 4.36 2 3 2 C2.67 2.99 2.34 3.98 2 5 C0.35 5 -1.3 5 -3 5 C-3.33 4.34 -3.66 3.68 -4 3 C-2.68 2.67 -1.36 2.34 0 2 C0 1.34 0 0.68 0 0 Z " fill="#87ABC2" transform="translate(250,230)"/>
<path d="M0 0 C0.66 0 1.32 0 2 0 C2 1.98 2 3.96 2 6 C2.66 6 3.32 6 4 6 C4 6.66 4 7.32 4 8 C4.66 8.33 5.32 8.66 6 9 C4.00045254 9.04254356 1.99958364 9.04080783 0 9 C-1 8 -1 8 -1.125 5.0625 C-1 2 -1 2 0 0 Z " fill="#6F9CB8" transform="translate(378,369)"/>
<path d="M0 0 C0.33 0.66 0.66 1.32 1 2 C3.02463255 2.65213292 3.02463255 2.65213292 5 3 C4.75 4.8125 4.75 4.8125 4 7 C2.68 7.99 1.36 8.98 0 10 C0 6.7 0 3.4 0 0 Z " fill="#E0F4FA" transform="translate(262,205)"/>
<path d="M0 0 C0.66 0.99 1.32 1.98 2 3 C1.67 3.66 1.34 4.32 1 5 C5.95 5 10.9 5 16 5 C16.33 4.34 16.66 3.68 17 3 C17 3.99 17 4.98 17 6 C11.06 6 5.12 6 -1 6 C-0.67 4.02 -0.34 2.04 0 0 Z " fill="#662923" transform="translate(411,341)"/>
<path d="M0 0 C1.65 0 3.3 0 5 0 C5 2 5 2 2.75 4.5 C0.4735035 6.56954228 -1.19566446 7.85749293 -4 9 C-2.80100302 5.9168649 -1.52299523 2.93720508 0 0 Z " fill="#EAD6D2" transform="translate(376,332)"/>
<path d="M0 0 C0.99 0 1.98 0 3 0 C3 0.66 3 1.32 3 2 C4.65 2.33 6.3 2.66 8 3 C8 3.66 8 4.32 8 5 C5.36 5 2.72 5 0 5 C0 3.35 0 1.7 0 0 Z " fill="#B5D7E6" transform="translate(195,233)"/>
<path d="M0 0 C1.98 0.99 1.98 0.99 4 2 C4 3.32 4 4.64 4 6 C2.02 6.99 2.02 6.99 0 8 C0 5.36 0 2.72 0 0 Z " fill="#E0F3F9" transform="translate(262,315)"/>
<path d="M0 0 C0.99 0.33 1.98 0.66 3 1 C2.67 1.66 2.34 2.32 2 3 C1.34 3 0.68 3 0 3 C-0.33 3.99 -0.66 4.98 -1 6 C-1.66 5.67 -2.32 5.34 -3 5 C-3 4.34 -3 3.68 -3 3 C-2.34 3 -1.68 3 -1 3 C-0.67 2.01 -0.34 1.02 0 0 Z M-4 5 C-4 7.66666667 -4 10.33333333 -4 13 C-4.99 12.01 -5.98 11.02 -7 10 C-6.01 8.35 -5.02 6.7 -4 5 Z " fill="#6E1912" transform="translate(130,301)"/>
<path d="M0 0 C5.94 0 11.88 0 18 0 C17.67 0.66 17.34 1.32 17 2 C13.04 1.67 9.08 1.34 5 1 C5.33 1.99 5.66 2.98 6 4 C4.68 3.67 3.36 3.34 2 3 C2 2.34 2 1.68 2 1 C1.34 0.67 0.68 0.34 0 0 Z " fill="#CEE8F5" transform="translate(294,231)"/>
<path d="M0 0 C2.475 0.99 2.475 0.99 5 2 C5 5 5 5 3.625 6.6875 C2 8 2 8 0 8 C0 5.36 0 2.72 0 0 Z " fill="#E2F5FB" transform="translate(262,334)"/>
<path d="M0 0 C0.66 0.33 1.32 0.66 2 1 C1.67 3.64 1.34 6.28 1 9 C1.66 9.33 2.32 9.66 3 10 C3 11.98 3 13.96 3 16 C2.34 16 1.68 16 1 16 C1 14.68 1 13.36 1 12 C0.34 12 -0.32 12 -1 12 C-0.67 8.04 -0.34 4.08 0 0 Z " fill="#A1BFD4" transform="translate(261,314)"/>
<path d="M0 0 C3.63 0 7.26 0 11 0 C11 0.33 11 0.66 11 1 C7.7 1.33 4.4 1.66 1 2 C0.01 4.64 -0.98 7.28 -2 10 C-2.33 10 -2.66 10 -3 10 C-3 8.02 -3 6.04 -3 4 C-2.34 4 -1.68 4 -1 4 C-0.67 2.68 -0.34 1.36 0 0 Z " fill="#773732" transform="translate(431,334)"/>
<path d="M0 0 C-0.66 0 -1.32 0 -2 0 C-2 0.66 -2 1.32 -2 2 C-2.8971875 2.0928125 -2.8971875 2.0928125 -3.8125 2.1875 C-6.85754676 3.31851737 -7.44490515 5.24324095 -9 8 C-9.66 8 -10.32 8 -11 8 C-10.67 6.68 -10.34 5.36 -10 4 C-9.34 4 -8.68 4 -8 4 C-7.71125 3.360625 -7.4225 2.72125 -7.125 2.0625 C-5.18025038 -1.5028743 -3.54277596 -1.06283279 0 0 Z " fill="#DFBCB8" transform="translate(140,300)"/>
<path d="M0 0 C2.25597827 2.25597827 2.96574192 4.04603867 4.125 7 C4.47820312 7.886875 4.83140625 8.77375 5.1953125 9.6875 C6 12 6 12 6 14 C5.34 14 4.68 14 4 14 C3.67 11.69 3.34 9.38 3 7 C2.01 7 1.02 7 0 7 C0 4.69 0 2.38 0 0 Z " fill="#7A3935" transform="translate(455,288)"/>
<path d="M0 0 C2.97 0 5.94 0 9 0 C9.33 1.32 9.66 2.64 10 4 C7.25 4.25 7.25 4.25 4 4 C1.625 2 1.625 2 0 0 Z " fill="#85AAC3" transform="translate(237,235)"/>
<path d="M0 0 C1.125 3.75 1.125 3.75 0 6 C1.32 5.67 2.64 5.34 4 5 C4 5.99 4 6.98 4 8 C1.69 8 -0.62 8 -3 8 C-1.125 1.125 -1.125 1.125 0 0 Z " fill="#8FA9BB" transform="translate(401,381)"/>
<path d="M0 0 C1.32 0.33 2.64 0.66 4 1 C3.67 6.28 3.34 11.56 3 17 C2.67 17 2.34 17 2 17 C1.34 11.39 0.68 5.78 0 0 Z " fill="#DDC2BB" transform="translate(176,303)"/>
<path d="M0 0 C0 0.99 0 1.98 0 3 C-0.99 3.495 -0.99 3.495 -2 4 C-2.65772428 7.02934491 -2.65772428 7.02934491 -3 10 C-3.103125 9.360625 -3.20625 8.72125 -3.3125 8.0625 C-3.539375 7.381875 -3.76625 6.70125 -4 6 C-4.99 5.67 -5.98 5.34 -7 5 C-7 4.34 -7 3.68 -7 3 C-4.69 2.01 -2.38 1.02 0 0 Z " fill="#D9EEF6" transform="translate(394,386)"/>
<path d="M0 0 C0.66 0.33 1.32 0.66 2 1 C1.75 2.875 1.75 2.875 1 5 C-1.93995019 7.02755186 -3.27704003 7 -7 7 C-7 6.01 -7 5.02 -7 4 C-5.02 3.67 -3.04 3.34 -1 3 C-0.67 2.01 -0.34 1.02 0 0 Z " fill="#6E98B5" transform="translate(418,377)"/>
<path d="M0 0 C0.99 0.33 1.98 0.66 3 1 C2.34 2.98 1.68 4.96 1 7 C0.34 7 -0.32 7 -1 7 C-1.66 8.32 -2.32 9.64 -3 11 C-2.39138321 7.08746351 -1.78491132 3.56982264 0 0 Z " fill="#752B26" transform="translate(377,325)"/>
<path d="M0 0 C0 0.99 0 1.98 0 3 C0.66 3 1.32 3 2 3 C2 4.65 2 6.3 2 8 C0.68 8 -0.64 8 -2 8 C-2.6875 6.25 -2.6875 6.25 -3 4 C-1.5625 1.75 -1.5625 1.75 0 0 Z " fill="#7B2E25" transform="translate(115,296)"/>
<path d="M0 0 C0.99 0.33 1.98 0.66 3 1 C2.01 3.31 1.02 5.62 0 8 C-0.99 8 -1.98 8 -3 8 C-2.45276317 4.62537285 -1.9451 2.91765 0 0 Z " fill="#FBF1EF" transform="translate(110,299)"/>
<path d="M0 0 C1.43836751 0.11458693 2.87570966 0.24209116 4.3125 0.375 C5.51326172 0.47941406 5.51326172 0.47941406 6.73828125 0.5859375 C9 1 9 1 12 3 C8.69564916 4.12377697 6.9493138 3.89554742 3.75 2.5625 C3.04359375 2.27503906 2.3371875 1.98757813 1.609375 1.69140625 C1.07828125 1.46324219 0.5471875 1.23507812 0 1 C0 0.67 0 0.34 0 0 Z " fill="#783430" transform="translate(124,343)"/>
<path d="M0 0 C0.66 0.66 1.32 1.32 2 2 C-0.25 4.5625 -0.25 4.5625 -3 7 C-4.32 6.67 -5.64 6.34 -7 6 C-4.69 4.02 -2.38 2.04 0 0 Z M2 0 C4 1 4 1 4 1 Z " fill="#E5CCC9" transform="translate(171,336)"/>
<path d="M0 0 C0.33 0 0.66 0 1 0 C0.25 7.625 0.25 7.625 -2 11 C-2.66 11 -3.32 11 -4 11 C-3.5247412 9.35303396 -3.04468109 7.70745272 -2.5625 6.0625 C-2.29566406 5.14597656 -2.02882813 4.22945313 -1.75390625 3.28515625 C-1 1 -1 1 0 0 Z " fill="#6A2219" transform="translate(426,307)"/>
<path d="M0 0 C0.66 0 1.32 0 2 0 C2 0.66 2 1.32 2 2 C3.32 2.33 4.64 2.66 6 3 C5.67 4.65 5.34 6.3 5 8 C2.20127563 5.47211993 0.54226981 3.79588866 0 0 Z " fill="#F7EDE6" transform="translate(359,304)"/>
<path d="M0 0 C1.32 0.66 2.64 1.32 4 2 C3.67 2.99 3.34 3.98 3 5 C3 4.34 3 3.68 3 3 C2.34 3 1.68 3 1 3 C0.67 4.65 0.34 6.3 0 8 C-0.33 7.01 -0.66 6.02 -1 5 C-1.66 4.67 -2.32 4.34 -3 4 C-2.34 4 -1.68 4 -1 4 C-0.67 2.68 -0.34 1.36 0 0 Z " fill="#7E2924" transform="translate(443,301)"/>
<path d="M0 0 C2 3 2 3 2 7 C0.35 7.66 -1.3 8.32 -3 9 C-2.01 6.03 -1.02 3.06 0 0 Z " fill="#793530" transform="translate(435,285)"/>
<path d="M0 0 C1 3 1 3 1 6 C-1.5 7.6875 -1.5 7.6875 -4 9 C-2.94124926 5.59687262 -1.99097846 2.98646769 0 0 Z " fill="#E9D5CF" transform="translate(383,321)"/>
<path d="M0 0 C0.66 0 1.32 0 2 0 C2.66 1.98 3.32 3.96 4 6 C2.35 5.67 0.7 5.34 -1 5 C-0.67 3.35 -0.34 1.7 0 0 Z " fill="#ECCAC5" transform="translate(444,304)"/>
<path d="M0 0 C2.64 0 5.28 0 8 0 C8 0.66 8 1.32 8 2 C5.69 2.33 3.38 2.66 1 3 C0.67 2.01 0.34 1.02 0 0 Z " fill="#F0FBFC" transform="translate(240,231)"/>
<path d="M0 0 C2.31 0.33 4.62 0.66 7 1 C6.67 2.98 6.34 4.96 6 7 C4 4 4 4 4 1 C2.68 1.33 1.36 1.66 0 2 C0 1.34 0 0.68 0 0 Z " fill="#7499B3" transform="translate(441,367)"/>
<path d="M0 0 C-2.97 2.475 -2.97 2.475 -6 5 C-6.66 4.67 -7.32 4.34 -8 4 C-8 3.34 -8 2.68 -8 2 C-3.61016949 -1.20338983 -3.61016949 -1.20338983 0 0 Z " fill="#691E17" transform="translate(171,337)"/>
<path d="M0 0 C0.99 0.33 1.98 0.66 3 1 C1.71480435 3.86697492 0.42870746 5.97607712 -2 8 C-2.66 8 -3.32 8 -4 8 C-3.34 6.68 -2.68 5.36 -2 4 C-1.34 4 -0.68 4 0 4 C0 2.68 0 1.36 0 0 Z " fill="#F2DCD8" transform="translate(156,322)"/>
<path d="M0 0 C2.32472205 2.85306797 3.7508258 5.54074837 5 9 C1.83884224 7.63016497 1.0072908 7.0109362 -1 4 C-0.625 1.8125 -0.625 1.8125 0 0 Z " fill="#F4E0DE" transform="translate(131,322)"/>
<path d="M0 0 C1.953125 0.8671875 1.953125 0.8671875 4 2 C4.75 4.125 4.75 4.125 5 6 C4.34 6 3.68 6 3 6 C3.33 7.32 3.66 8.64 4 10 C3.34 9.67 2.68 9.34 2 9 C1.3671875 6.93359375 1.3671875 6.93359375 0.875 4.4375 C0.70742188 3.61121094 0.53984375 2.78492188 0.3671875 1.93359375 C0.24601562 1.29550781 0.12484375 0.65742188 0 0 Z " fill="#E9D4CE" transform="translate(459,294)"/>
<path d="M0 0 C2.32472205 2.85306797 3.7508258 5.54074837 5 9 C4.01 9 3.02 9 2 9 C0.50178941 5.62902617 0 3.79557881 0 0 Z " fill="#90B0C5" transform="translate(422,378)"/>
<path d="M0 0 C0.66 0 1.32 0 2 0 C1.1875 3.4375 1.1875 3.4375 0 7 C-0.99 7.33 -1.98 7.66 -3 8 C-1.125 1.125 -1.125 1.125 0 0 Z " fill="#C9E4F1" transform="translate(443,372)"/>
<path d="M0 0 C1.65 1.65 3.3 3.3 5 5 C4.01 5.495 4.01 5.495 3 6 C3 6.66 3 7.32 3 8 C2.34 8 1.68 8 1 8 C0.67 5.36 0.34 2.72 0 0 Z " fill="#7BA3C1" transform="translate(350,367)"/>
<path d="M0 0 C-1 2 -1 2 -2.84765625 2.6328125 C-3.57855469 2.79523438 -4.30945313 2.95765625 -5.0625 3.125 C-6.16271484 3.37636719 -6.16271484 3.37636719 -7.28515625 3.6328125 C-7.85105469 3.75398438 -8.41695312 3.87515625 -9 4 C-8.67 3.01 -8.34 2.02 -8 1 C-5.07175348 0.02391783 -3.04386724 -0.08226668 0 0 Z " fill="#6A2117" transform="translate(164,342)"/>
<path d="M0 0 C1.125 3.75 1.125 3.75 0 6 C-2.31 6 -4.62 6 -7 6 C-4.83312509 3.72478134 -2.54379491 1.84205838 0 0 Z " fill="#8B4A45" transform="translate(156,327)"/>
<path d="M0 0 C0.99 0.66 1.98 1.32 3 2 C1.88625 2.433125 1.88625 2.433125 0.75 2.875 C-1.56739797 3.82302644 -3.77917115 4.84845911 -6 6 C-4.95125002 3.37812506 -4.35068687 2.20628639 -1.875 0.75 C-1.25625 0.5025 -0.6375 0.255 0 0 Z " fill="#7B3633" transform="translate(122,290)"/>
<path d="M0 0 C0.66 0.99 1.32 1.98 2 3 C0.7260411 5.03833424 -0.61061923 7.03852126 -2 9 C-2.66 9 -3.32 9 -4 9 C-2.94124926 5.59687262 -1.99097846 2.98646769 0 0 Z " fill="#63150F" transform="translate(418,327)"/>
<path d="M0 0 C0.33 0.66 0.66 1.32 1 2 C1.66 2.33 2.32 2.66 3 3 C5 4 5 4 6 6 C5.34 6.66 4.68 7.32 4 8 C2 6.25 2 6.25 0 4 C0 2.68 0 1.36 0 0 Z " fill="#8AA6B9" transform="translate(261,328)"/>
<path d="M0 0 C1.98 0.495 1.98 0.495 4 1 C4 1.99 4 2.98 4 4 C2.35 4.66 0.7 5.32 -1 6 C-0.67 4.02 -0.34 2.04 0 0 Z " fill="#EBDBD5" transform="translate(353,328)"/>
<path d="M0 0 C0.66 0 1.32 0 2 0 C1.42647107 3.87132028 -0.48704352 6.08172796 -3 9 C-3 7.35 -3 5.7 -3 4 C-2.01 3.67 -1.02 3.34 0 3 C0 2.01 0 1.02 0 0 Z " fill="#6F271F" transform="translate(383,317)"/>
<path d="M0 0 C0.99 0 1.98 0 3 0 C3 1.98 3 3.96 3 6 C1.68 5.34 0.36 4.68 -1 4 C-0.67 2.68 -0.34 1.36 0 0 Z " fill="#EBFAFD" transform="translate(264,308)"/>
<path d="M0 0 C2 2 2 2 2.1953125 3.9453125 C2.13020833 5.96354167 2.06510417 7.98177083 2 10 C0.68 8.68 -0.64 7.36 -2 6 C-1.34 4.02 -0.68 2.04 0 0 Z " fill="#731F16" transform="translate(429,300)"/>
<path d="M0 0 C0 0.66 0 1.32 0 2 C1.65 2 3.3 2 5 2 C5 2.33 5 2.66 5 3 C1.37 3.33 -2.26 3.66 -6 4 C-2.25 0 -2.25 0 0 0 Z " fill="#7096B4" transform="translate(277,236)"/>
<path d="M0 0 C2.97 0.495 2.97 0.495 6 1 C6.33 1.99 6.66 2.98 7 4 C3 4 3 4 1.25 2.5625 C0 1 0 1 0 0 Z " fill="#80A7BC" transform="translate(290,231)"/>
<path d="M0 0 C2.625 -0.1875 2.625 -0.1875 5 0 C5 0.99 5 1.98 5 3 C2.69 3 0.38 3 -2 3 C-1.34 2.01 -0.68 1.02 0 0 Z " fill="#EEFCFD" transform="translate(253,233)"/>
<path d="M0 0 C0.66 0 1.32 0 2 0 C2 0.66 2 1.32 2 2 C2.99 2.33 3.98 2.66 5 3 C5 3.33 5 3.66 5 4 C2.36 4 -0.28 4 -3 4 C-1.625 2 -1.625 2 0 0 Z " fill="#8CA3B5" transform="translate(430,385)"/>
<path d="M0 0 C1.32 0.66 2.64 1.32 4 2 C4 2.99 4 3.98 4 5 C2.35 4.67 0.7 4.34 -1 4 C-0.67 2.68 -0.34 1.36 0 0 Z " fill="#86A2B6" transform="translate(376,383)"/>
<path d="M0 0 C0.66 0.33 1.32 0.66 2 1 C1.67 2.65 1.34 4.3 1 6 C0.01 6 -0.98 6 -2 6 C-2.33 5.01 -2.66 4.02 -3 3 C-2.01 2.01 -1.02 1.02 0 0 Z " fill="#7B9EBB" transform="translate(355,373)"/>
<path d="M0 0 C0.66 0.33 1.32 0.66 2 1 C2.625 4.0625 2.625 4.0625 3 7 C0.69 7 -1.62 7 -4 7 C-2.68 6.67 -1.36 6.34 0 6 C0 4.02 0 2.04 0 0 Z " fill="#65110A" transform="translate(476,339)"/>
</svg>
