<?xml version="1.0" standalone="no"?>
<!DOCTYPE svg PUBLIC "-//W3C//DTD SVG 20010904//EN"
 "http://www.w3.org/TR/2001/REC-SVG-20010904/DTD/svg10.dtd">
<svg version="1.0" xmlns="http://www.w3.org/2000/svg"
 width="588.000000pt" height="583.000000pt" viewBox="0 0 588.000000 583.000000"
 preserveAspectRatio="xMidYMid meet">

<g transform="translate(0.000000,583.000000) scale(0.100000,-0.100000)"
fill="#000000" stroke="none">
<path d="M1360 2989 c-67 -13 -144 -55 -185 -101 -143 -157 -97 -407 92 -500
64 -31 73 -33 173 -33 125 1 176 20 249 94 72 72 86 108 86 226 0 114 -14 150
-84 222 -82 83 -203 117 -331 92z m150 -159 c57 -29 84 -72 88 -146 7 -112
-44 -175 -148 -182 -94 -7 -164 48 -176 139 -20 147 111 253 236 189z"/>
<path d="M1877 2983 c-4 -3 -7 -145 -7 -315 l0 -308 90 0 90 0 0 105 0 104
138 3 137 3 3 67 3 67 -138 3 -138 3 0 65 0 65 153 3 152 3 0 69 0 70 -238 0
c-131 0 -242 -3 -245 -7z"/>
<path d="M3017 2983 c-4 -3 -7 -145 -7 -315 l0 -308 90 0 90 0 0 315 0 315
-83 0 c-46 0 -87 -3 -90 -7z"/>
<path d="M3315 2977 c-3 -7 -4 -147 -3 -312 l3 -300 82 -3 82 -3 3 153 3 153
75 -122 75 -122 41 -1 c37 0 42 3 64 43 13 23 47 79 76 124 l51 82 7 -91 c3
-50 6 -120 6 -155 l0 -63 80 0 80 0 -2 313 -3 312 -70 3 -70 3 -104 -176 c-57
-96 -107 -175 -112 -175 -4 0 -55 79 -114 175 l-107 175 -69 0 c-47 0 -71 -4
-74 -13z"/>
<path d="M4356 2968 c-9 -12 -16 -26 -16 -30 0 -4 -56 -133 -125 -288 -69
-155 -125 -283 -125 -286 0 -2 40 -4 88 -4 l89 0 26 60 26 61 131 -3 132 -3
22 -55 22 -55 92 -3 c51 -1 92 0 92 3 0 10 -262 600 -272 613 -7 8 -38 12 -89
12 -69 0 -80 -2 -93 -22z m133 -259 c17 -44 29 -85 25 -90 -6 -10 -127 -13
-136 -3 -3 3 9 42 28 87 19 45 34 83 34 84 0 2 4 3 8 3 5 0 23 -36 41 -81z"/>
</g>
</svg>
